G04*
G04 #@! TF.GenerationSoftware,Altium Limited,Altium Designer,20.2.7 (254)*
G04*
G04 Layer_Color=16711935*
%FSLAX44Y44*%
%MOMM*%
G71*
G04*
G04 #@! TF.SameCoordinates,7EC108C9-9281-4557-961A-1BC1E5D73618*
G04*
G04*
G04 #@! TF.FilePolarity,Negative*
G04*
G01*
G75*
%ADD81C,0.8532*%
%ADD82R,1.9032X1.9032*%
%ADD83C,0.9032*%
%ADD84C,5.3032*%
%ADD85C,1.4032*%
%ADD86R,1.4032X1.4032*%
%ADD87R,1.4032X1.4032*%
%ADD88C,1.7032*%
%ADD89R,1.7032X1.7032*%
%ADD90R,1.8032X1.8032*%
%ADD91C,1.8032*%
%ADD92R,1.8032X1.8032*%
%ADD93R,1.7272X1.7272*%
%ADD94C,1.7272*%
%ADD95C,1.2032*%
%ADD96C,0.8032*%
D81*
X48300Y271700D02*
D03*
D82*
X53300Y294000D02*
D03*
X53100Y191600D02*
D03*
X14000Y293500D02*
D03*
X13800Y191200D02*
D03*
D83*
X48100Y213900D02*
D03*
D84*
X40040Y759940D02*
D03*
Y39960D02*
D03*
X900000Y39980D02*
D03*
X900030Y759940D02*
D03*
D85*
X549871Y647508D02*
D03*
X581871D02*
D03*
X603871D02*
D03*
X625871D02*
D03*
X549871Y698308D02*
D03*
X581871D02*
D03*
X603871D02*
D03*
X391871Y646509D02*
D03*
X423871D02*
D03*
X445871D02*
D03*
X467871D02*
D03*
X391871Y697309D02*
D03*
X423871D02*
D03*
X445871D02*
D03*
X702871Y547509D02*
D03*
X734871D02*
D03*
X756871D02*
D03*
X778871D02*
D03*
X702871Y598309D02*
D03*
X734871D02*
D03*
X756871D02*
D03*
X546871Y548509D02*
D03*
X578871D02*
D03*
X600871D02*
D03*
X622871D02*
D03*
X546871Y599309D02*
D03*
X578871D02*
D03*
X600871D02*
D03*
X702644Y647468D02*
D03*
X734644D02*
D03*
X756644D02*
D03*
X778644D02*
D03*
X702644Y698268D02*
D03*
X734644D02*
D03*
X756644D02*
D03*
X398644Y548468D02*
D03*
X430644D02*
D03*
X452644D02*
D03*
X474644D02*
D03*
X398644Y599268D02*
D03*
X430644D02*
D03*
X452644D02*
D03*
X128100Y432940D02*
D03*
Y464940D02*
D03*
Y486940D02*
D03*
Y508940D02*
D03*
X77300Y432940D02*
D03*
Y464940D02*
D03*
Y486940D02*
D03*
D86*
X625871Y698308D02*
D03*
X467871Y697309D02*
D03*
X778871Y598309D02*
D03*
X622871Y599309D02*
D03*
X778644Y698268D02*
D03*
X474644Y599268D02*
D03*
D87*
X77300Y508940D02*
D03*
D88*
X640270Y768310D02*
D03*
X614870D02*
D03*
X640270Y742910D02*
D03*
X614870D02*
D03*
X360870Y768310D02*
D03*
X386270D02*
D03*
X411670D02*
D03*
X437070D02*
D03*
X462470D02*
D03*
X487870D02*
D03*
X513270D02*
D03*
X538670D02*
D03*
X564070D02*
D03*
X589470D02*
D03*
Y742910D02*
D03*
X564070D02*
D03*
X538670D02*
D03*
X513270D02*
D03*
X487870D02*
D03*
X462470D02*
D03*
X437070D02*
D03*
X411670D02*
D03*
X386270D02*
D03*
X403120Y281010D02*
D03*
Y306410D02*
D03*
X428520Y281010D02*
D03*
Y306410D02*
D03*
X453920Y281010D02*
D03*
D89*
X360870Y742910D02*
D03*
X453920Y306410D02*
D03*
D90*
X305660Y766310D02*
D03*
D91*
X280260D02*
D03*
X694160Y741300D02*
D03*
X18000Y707700D02*
D03*
D92*
X694160Y766700D02*
D03*
X18000Y682300D02*
D03*
D93*
X183220Y74340D02*
D03*
D94*
X183620Y99740D02*
D03*
Y125140D02*
D03*
Y150540D02*
D03*
Y175940D02*
D03*
Y201340D02*
D03*
Y226740D02*
D03*
Y252140D02*
D03*
Y277540D02*
D03*
Y302940D02*
D03*
X183220Y328340D02*
D03*
Y353740D02*
D03*
Y379140D02*
D03*
Y404540D02*
D03*
Y429940D02*
D03*
Y455340D02*
D03*
Y480740D02*
D03*
Y506140D02*
D03*
Y531540D02*
D03*
Y556940D02*
D03*
X336520Y74340D02*
D03*
X336920Y99740D02*
D03*
Y125140D02*
D03*
Y150540D02*
D03*
Y175940D02*
D03*
Y201340D02*
D03*
Y226740D02*
D03*
Y252140D02*
D03*
Y277540D02*
D03*
Y302940D02*
D03*
X336520Y328340D02*
D03*
Y353740D02*
D03*
Y379140D02*
D03*
Y404540D02*
D03*
Y429940D02*
D03*
Y455340D02*
D03*
Y480740D02*
D03*
Y506140D02*
D03*
Y531540D02*
D03*
Y556940D02*
D03*
D95*
X250000Y759000D02*
D03*
Y774500D02*
D03*
X205000Y786000D02*
D03*
X54000Y620050D02*
D03*
X67000D02*
D03*
X77000Y730000D02*
D03*
X64000D02*
D03*
X18000Y583000D02*
D03*
Y598000D02*
D03*
D96*
X342000Y790000D02*
D03*
X265000Y620000D02*
D03*
X224000Y613000D02*
D03*
Y623000D02*
D03*
X182000Y603000D02*
D03*
X122000D02*
D03*
X212000D02*
D03*
X162000D02*
D03*
X112000D02*
D03*
X132000D02*
D03*
X192000D02*
D03*
X142000D02*
D03*
X224000Y603000D02*
D03*
X82000Y603000D02*
D03*
X202000D02*
D03*
X102000D02*
D03*
X152000D02*
D03*
X92000D02*
D03*
X72000D02*
D03*
X172000D02*
D03*
X224000Y653000D02*
D03*
Y643000D02*
D03*
Y633000D02*
D03*
Y683000D02*
D03*
Y673000D02*
D03*
Y663000D02*
D03*
Y693000D02*
D03*
Y703000D02*
D03*
Y713000D02*
D03*
Y723000D02*
D03*
Y733000D02*
D03*
X197988Y721000D02*
D03*
X100000Y759000D02*
D03*
X148000Y696000D02*
D03*
Y706000D02*
D03*
X168000Y696000D02*
D03*
Y706000D02*
D03*
Y726000D02*
D03*
Y736000D02*
D03*
X148000D02*
D03*
Y726000D02*
D03*
Y716000D02*
D03*
X168000D02*
D03*
X158000Y696000D02*
D03*
Y706000D02*
D03*
Y736000D02*
D03*
Y726000D02*
D03*
Y716000D02*
D03*
X171000Y749000D02*
D03*
X161000D02*
D03*
X151000D02*
D03*
X141000D02*
D03*
X131000D02*
D03*
X187000Y679000D02*
D03*
X177000D02*
D03*
X167000D02*
D03*
X157000D02*
D03*
X147000D02*
D03*
X137000D02*
D03*
X127000D02*
D03*
Y669000D02*
D03*
X117000D02*
D03*
X107000D02*
D03*
X97000D02*
D03*
X87000D02*
D03*
X77000D02*
D03*
X67000D02*
D03*
X57000D02*
D03*
M02*
