M48
;Layer_Color=9474304
;FILE_FORMAT=4:4
METRIC,LZ
;TYPE=PLATED
T1F00S00C0.3000
T2F00S00C0.5000
T3F00S00C0.6500
T4F00S00C0.7000
T5F00S00C0.7620
T6F00S00C0.8500
T7F00S00C0.9000
T8F00S00C1.0000
T9F00S00C1.2000
T10F00S00C3.0000
%
T01
X0077087Y0006331
X0076186Y0011316
X0077087Y0012931
X0079276Y0012729
X0080687Y0011131
X0080587Y0014431
X0084787Y0014831
X0085487Y0011131
X0087212Y0010431
X0090525Y0009577
X0090687Y0014731
X0087687Y0017156
X0087637Y0019181
X0081387Y0018731
X0079387Y0021131
X0076487Y0021031
X0073787Y0012931
X0072535Y0011367
X0074487Y0032931
X0075987Y0033031
X0077487
X0079187Y0032631
X0071987Y0032031
X0071373Y0034478
X0069487Y0034031
X0069287Y0030831
X0063887Y0032631
X00581999Y00326981
X00543409Y00326786
X00529158Y00332598
X0049687Y0033131
X0048287Y0033429
X0048487Y0040806
X0049987
X0038862Y0039656
X0038399Y00223655
X0040906Y0023335
X0040775Y0017671
X0040134Y0014946
X0041781Y0014919
X0042758Y0014998
X0043995Y0014993
X0044633Y0016721
X004876Y0017131
X0051187Y0017231
X0053287Y0016431
X0054487Y0015631
X0056187Y0017256
X0057997Y0016518
X0060687Y0016731
X0060455Y001386
X0063687Y0012931
X0063075Y0011328
X0067054Y001123
X0067187Y0012931
X0070487
X0069163Y0011327
X0058065Y001154
X0056262Y0013106
X0054587Y0011231
X0053287Y0012131
X005595Y0009239
X0061993Y0006207
X0058058Y0020761
X0056162Y0021831
X0054487Y0020131
X0053287Y0020631
X0053387Y0025031
X0054387Y0024431
X0056187Y0026106
X0058014Y0024556
X00581687Y00285297
X0056187Y0030106
X0054487Y0028831
X0053287Y0029331
X0046387Y0011431
X0046024Y0008936
X004091Y0008765
X003821Y0009813
X003744Y0005491
X0026702Y0029977
X0028462Y00321945
X00263585Y0035825
X00245615Y0034283
X0015048Y0034917
X001291Y0036727
X0009964Y0036742
X00076961Y00392058
X0004Y00382
X00019615
X00021Y00411
X00019Y00421
X00014Y0028
X00074Y00282
X00054Y00308
X00073065Y00203545
X00053Y00179
X00014Y00205
X0012962Y0025194
X001291Y0055094
X000841Y0054994
X00082Y00603
X00092
X00102
X00112
X00122
X00132
X00142
X00152
X00162
X00172
X00182
X00192
X00202
X00212
X00224Y00603
Y00613
Y00623
Y00633
Y00643
Y00653
Y00663
Y00673
Y00683
Y00693
Y00703
Y00713
Y00723
Y00733
X00197988Y00721
X00168Y00716
Y00706
Y00696
X00158
X00148
Y00706
Y00716
Y00726
Y00736
X00158
X00168
Y00726
X00158
Y00716
Y00706
X00157Y00679
X00167
X00177
X00187
X00147
X00137
X00127
Y00669
X00117
X00107
X00097
X00087
X00077
X00067
X00057
X00072Y00603
X00212Y00575
X00265Y0062
X00272223Y0064411
X0026506Y0066072
X0026585Y0067999
X0025406Y0071072
X0026896Y0072831
X0032096
X0031103Y0064162
X00171Y00749
X00161
X00151
X00141
X00131
X001Y00759
X00172Y00775998
X00342Y0079
X0032996Y0070231
X0034546Y0068731
X0034196Y0067331
X0034151Y0065427
X00375675Y00674235
X00378584Y00682024
X0041387Y0062831
X0045387
X0051187Y0061231
X0051487Y0058731
Y0054131
X0045787Y0053031
X0037587Y00531316
X003462Y0059129
X0050987Y0066331
X0050887Y0068831
X0058287Y0062831
X00669Y00593
X0067487Y0055631
X0070687Y0052331
X0061787Y0046131
X0066887Y0066531
X0067362Y0069031
X0072787Y0062831
X0083087Y0060231
X008468Y0059165
X0083187Y0055431
X0085773Y005379
X0089473Y005479
X0090773Y005529
Y005959
X0091373Y006209
Y006649
X0089673Y006579
X0085973Y006469
X0082187Y0066731
X0081887Y0069131
X0083762Y0070931
X0082059Y0072823
X00816106Y00745946
X0081516Y00755
X00834012Y00777852
X0076441Y0076875
X0075266Y00755
X0091282Y0070334
X0080762Y0048331
X0076687Y0046131
X0075387Y0052431
T02
X00018Y00583
Y00598
X00054Y0062005
X00067
X00064Y0073
X00077
X00205Y00786
X0025Y007745
Y00759
T03
X000483Y002717
T04
X000481Y002139
T05
X0033652Y0007434
X0033692Y0009974
Y0012514
Y0015054
Y0017594
Y0020134
Y0022674
Y0025214
Y0027754
Y0030294
X0033652Y0032834
Y0035374
Y0037914
Y0040454
X0018322
Y0037914
Y0035374
Y0032834
X0018362Y0030294
Y0027754
Y0025214
Y0022674
Y0020134
Y0017594
Y0015054
Y0012514
Y0009974
X0018322Y0007434
Y0042994
Y0045534
Y0048074
Y0050614
Y0053154
Y0055694
X0033652
Y0053154
Y0050614
Y0048074
Y0045534
Y0042994
T06
X000773Y0043294
Y0046494
Y0048694
Y0050894
X001281
Y0048694
Y0046494
Y0043294
X00398644Y00548468
X00430644
X00452644
X00474644
Y00599268
X00452644
X00430644
X00398644
X00391871Y00646509
X00423871
X00445871
X00467871
Y00697309
X00445871
X00423871
X00391871
X00549871Y00698308
X00581871
X00603871
X00625871
Y00647508
X00603871
X00581871
X00549871
X00546871Y00599309
X00578871
X00600871
X00622871
Y00548509
X00600871
X00578871
X00546871
X00702871Y00547509
Y00598309
X00702644Y00647468
Y00698268
X00734644
X00756644
X00778644
Y00647468
X00756644
X00734644
X00734871Y00598309
X00756871
X00778871
Y00547509
X00756871
X00734871
T07
X0040312Y0028101
Y0030641
X0042852
Y0028101
X0045392
Y0030641
T08
X0036087Y0074291
Y0076831
X0038627
X0041167
X0043707
X0046247
X0048787
X0051327
X0053867
X0056407
X0058947
X0061487
X0064027
Y0074291
X0061487
X0058947
X0056407
X0053867
X0051327
X0048787
X0046247
X0043707
X0041167
X0038627
T09
X00018Y006823
Y007077
X0028026Y0076631
X0030566
X0069416Y007667
Y007413
T10
X009Y0003998
X0004004Y0003996
Y0075994
X0090003
M30
