G04*
G04 #@! TF.GenerationSoftware,Altium Limited,Altium Designer,20.2.7 (254)*
G04*
G04 Layer_Physical_Order=1*
G04 Layer_Color=255*
%FSLAX44Y44*%
%MOMM*%
G71*
G04*
G04 #@! TF.SameCoordinates,14443FBA-9F2F-49AC-9F3F-8E7C631A9B01*
G04*
G04*
G04 #@! TF.FilePolarity,Positive*
G04*
G01*
G75*
%ADD12C,0.2540*%
%ADD13C,0.2000*%
%ADD64R,0.6000X0.6000*%
%ADD65R,1.3000X0.3000*%
%ADD66R,1.3000X0.6000*%
%ADD67R,2.7000X1.6000*%
%ADD68R,0.6000X0.5500*%
%ADD69R,0.6000X0.6000*%
%ADD70R,0.5500X0.6000*%
%ADD71R,1.1000X1.0000*%
%ADD72R,0.4000X0.9000*%
%ADD73R,1.9050X2.7900*%
%ADD74O,1.5000X0.3500*%
%ADD75R,1.5000X0.3500*%
%ADD76R,3.4000X5.0000*%
%ADD77O,0.7000X1.3000*%
%ADD78R,0.7000X1.3000*%
%ADD79C,0.3000*%
%ADD80R,2.0000X2.0000*%
%ADD81R,0.3000X1.2000*%
%ADD82R,0.9000X0.8000*%
%ADD83R,0.8000X0.9000*%
%ADD84R,0.8800X0.8500*%
%ADD85O,0.5000X0.8500*%
%ADD86R,1.7600X1.3000*%
%ADD87R,1.8000X1.3000*%
%ADD88O,1.3500X0.3500*%
%ADD89R,1.3500X0.3500*%
%ADD90O,0.3500X1.3500*%
%ADD91R,0.3500X1.3500*%
%ADD92O,0.3500X1.5000*%
%ADD93R,0.3500X1.5000*%
%ADD94O,0.6000X2.0000*%
%ADD95R,0.6000X2.0000*%
%ADD96R,1.0000X1.1000*%
%ADD97C,0.3000*%
%ADD98C,0.6000*%
%ADD99C,0.4000*%
%ADD100C,0.3500*%
%ADD101C,1.0000*%
%ADD102C,0.5000*%
%ADD103C,0.3810*%
%ADD104C,0.6500*%
%ADD105R,1.7000X1.7000*%
%ADD106C,0.7000*%
%ADD107C,5.1000*%
%ADD108C,1.2000*%
%ADD109R,1.2000X1.2000*%
%ADD110R,1.2000X1.2000*%
%ADD111C,1.5000*%
%ADD112R,1.5000X1.5000*%
%ADD113R,1.6000X1.6000*%
%ADD114C,1.6000*%
%ADD115R,1.6000X1.6000*%
%ADD116R,1.5240X1.5240*%
%ADD117C,1.5240*%
%ADD118C,0.6000*%
%ADD119C,1.0000*%
G36*
X154177Y760000D02*
X154468Y758537D01*
X155296Y757296D01*
X158296Y754296D01*
X159537Y753468D01*
X161000Y753177D01*
X176416D01*
X179177Y750416D01*
Y743519D01*
X178810Y743304D01*
X177540Y743540D01*
Y743540D01*
X159270D01*
Y716000D01*
Y688460D01*
X177540D01*
Y689500D01*
X185631D01*
X186000Y689427D01*
X202902D01*
Y651112D01*
X199136Y647345D01*
X195035D01*
Y658197D01*
X171985D01*
Y626297D01*
X195035D01*
Y637149D01*
X201247D01*
X203198Y637537D01*
X204852Y638643D01*
X211605Y645395D01*
X212710Y647049D01*
X213098Y649000D01*
Y694000D01*
X213000Y694492D01*
Y697730D01*
X213000Y699000D01*
X213000D01*
Y699000D01*
X213000D01*
Y707460D01*
X213730D01*
Y713000D01*
X215000D01*
Y714270D01*
X220540D01*
Y716460D01*
Y720730D01*
X215000D01*
Y723270D01*
X220540D01*
Y727540D01*
X220040D01*
Y730730D01*
X214500D01*
Y733270D01*
X220040D01*
Y736940D01*
X228076D01*
X228940Y736076D01*
Y652000D01*
X229180Y650173D01*
X229886Y648470D01*
X231008Y647008D01*
X233000Y645015D01*
Y596000D01*
X61060D01*
Y612940D01*
X72000D01*
X73827Y613180D01*
X75530Y613885D01*
X76992Y615008D01*
X83925Y621940D01*
X85500D01*
Y618000D01*
X116500D01*
Y623940D01*
X127000D01*
X128827Y624180D01*
X130530Y624885D01*
X131992Y626008D01*
X132035Y626050D01*
X146525D01*
Y657950D01*
X123475D01*
Y638060D01*
X104000D01*
X103541Y638000D01*
X85540D01*
Y639730D01*
X74460D01*
Y635460D01*
X75000D01*
Y632985D01*
X69075Y627060D01*
X67379D01*
X67000Y627110D01*
X66620Y627060D01*
X54380D01*
X54000Y627110D01*
X52173Y626870D01*
X50470Y626164D01*
X49008Y625042D01*
X47885Y623580D01*
X47180Y621877D01*
X46940Y620050D01*
X46943Y620025D01*
X46940Y620000D01*
Y596000D01*
X42000D01*
Y732509D01*
X44355Y732695D01*
X48564Y733705D01*
X52563Y735361D01*
X56254Y737623D01*
X59546Y740434D01*
X62357Y743726D01*
X64618Y747417D01*
X66275Y751416D01*
X67285Y755625D01*
X67625Y759940D01*
X67615Y760067D01*
X68477Y761000D01*
X94005D01*
X95047Y759730D01*
X94902Y759000D01*
X95290Y757049D01*
X96395Y755395D01*
X98049Y754290D01*
X100000Y753902D01*
X101951Y754290D01*
X103278Y755177D01*
X107250D01*
Y745233D01*
X107250Y744500D01*
X106067Y744290D01*
X103770D01*
Y739000D01*
X102500D01*
Y737730D01*
X96960D01*
Y735540D01*
X96460D01*
Y731270D01*
X102000D01*
Y730000D01*
X103270D01*
Y724460D01*
X107540D01*
Y725000D01*
X116440D01*
X117021Y724277D01*
X116492Y723073D01*
X101000D01*
X100631Y723000D01*
X85500D01*
X85500Y723000D01*
X84311Y723194D01*
Y729750D01*
X84070Y731577D01*
X83365Y733280D01*
X82242Y734742D01*
X81992Y734992D01*
X80530Y736115D01*
X78827Y736820D01*
X77000Y737060D01*
X75173Y736820D01*
X73470Y736115D01*
X72008Y734992D01*
X71271Y734033D01*
X71101Y733959D01*
X69899D01*
X69729Y734033D01*
X68992Y734992D01*
X67530Y736115D01*
X65827Y736820D01*
X64000Y737060D01*
X62173Y736820D01*
X60470Y736115D01*
X59008Y734992D01*
X57885Y733530D01*
X57180Y731827D01*
X56940Y730000D01*
Y723000D01*
X53500D01*
Y703000D01*
X84500D01*
Y703000D01*
X85500D01*
Y703000D01*
X114864D01*
X115287Y702718D01*
X116750Y702427D01*
X119468D01*
X120156Y701156D01*
X120129Y701020D01*
X130000D01*
Y698480D01*
X120129D01*
X120209Y698076D01*
X120597Y697496D01*
X121081Y696500D01*
X120597Y695504D01*
X120209Y694924D01*
X120129Y694520D01*
X130000D01*
Y693250D01*
X131270D01*
Y688876D01*
X135750D01*
X137190Y689162D01*
X138460Y688490D01*
Y688460D01*
X156730D01*
Y716000D01*
Y743540D01*
X138460D01*
Y742977D01*
X137213Y742282D01*
X135750Y742573D01*
X117398D01*
X117340Y742631D01*
X117475Y743384D01*
X118187Y744000D01*
X126000D01*
Y752730D01*
X126000Y754000D01*
X126000D01*
Y754000D01*
X126000D01*
Y761000D01*
X154177D01*
Y760000D01*
D02*
G37*
%LPC*%
G36*
X101230Y744290D02*
X96960D01*
Y740270D01*
X101230D01*
Y744290D01*
D02*
G37*
G36*
X100730Y728730D02*
X96460D01*
Y724460D01*
X100730D01*
Y728730D01*
D02*
G37*
G36*
X220540Y711730D02*
X216270D01*
Y707460D01*
X220540D01*
Y711730D01*
D02*
G37*
G36*
X128730Y691980D02*
X120129D01*
X120209Y691576D01*
X121157Y690157D01*
X122576Y689209D01*
X124250Y688876D01*
X128730D01*
Y691980D01*
D02*
G37*
G36*
X117040Y695540D02*
X102270D01*
Y686270D01*
X117040D01*
Y695540D01*
D02*
G37*
G36*
X67730D02*
X52960D01*
Y686270D01*
X67730D01*
Y695540D01*
D02*
G37*
G36*
X117040Y683730D02*
X102270D01*
Y674460D01*
X117040D01*
Y683730D01*
D02*
G37*
G36*
X99730Y695540D02*
X70270D01*
Y685000D01*
Y674460D01*
X99730D01*
Y685000D01*
Y695540D01*
D02*
G37*
G36*
X67730Y683730D02*
X52960D01*
Y674460D01*
X67730D01*
Y683730D01*
D02*
G37*
G36*
X117040Y666540D02*
X102270D01*
Y657270D01*
X117040D01*
Y666540D01*
D02*
G37*
G36*
X99730D02*
X84960D01*
Y657270D01*
X99730D01*
Y666540D01*
D02*
G37*
G36*
X117040Y654730D02*
X102270D01*
Y645460D01*
X117040D01*
Y654730D01*
D02*
G37*
G36*
X99730D02*
X84960D01*
Y646540D01*
X81270D01*
Y642270D01*
X85540D01*
Y645460D01*
X99730D01*
Y654730D01*
D02*
G37*
G36*
X78730Y646540D02*
X74460D01*
Y642270D01*
X78730D01*
Y646540D01*
D02*
G37*
%LPD*%
D12*
X74000Y274500D02*
Y282000D01*
X60675Y274750D02*
X60800Y274625D01*
X73875D01*
X74000Y274500D01*
X559500Y92390D02*
X569764D01*
X514370Y598310D02*
X514870Y597810D01*
X135760Y367270D02*
X137470Y368980D01*
X71096Y212533D02*
X72032D01*
X60700Y210800D02*
X69363D01*
X58700D02*
X60700D01*
X63663Y274750D02*
X65393Y276480D01*
X60675Y274750D02*
X63663D01*
X69363Y210800D02*
X71096Y212533D01*
X73032Y203577D02*
Y213468D01*
X102250Y738750D02*
X102500Y739000D01*
X102250Y730250D02*
Y738750D01*
X102000Y730000D02*
X102250Y730250D01*
X215000Y722000D02*
X215500Y722500D01*
X223500D01*
X224000Y723000D01*
X183816Y781316D02*
X184000Y781500D01*
X177318Y781316D02*
X183816D01*
X172000Y775998D02*
X177318Y781316D01*
X340960Y721420D02*
Y770040D01*
X332690Y778310D02*
X340960Y770040D01*
X292260Y778310D02*
X332690D01*
X212000Y539000D02*
Y575000D01*
X204540Y531540D02*
X212000Y539000D01*
X183220Y531540D02*
X204540D01*
X859299Y680400D02*
X876786D01*
X804910Y734750D02*
X811430Y728230D01*
X605870Y201810D02*
X606870D01*
X193562Y278662D02*
X280493Y365593D01*
X280493Y667287D02*
X280493Y365593D01*
X277060Y670720D02*
X280493Y667287D01*
X16000Y451000D02*
X18500D01*
X25730Y418643D02*
Y428270D01*
X28770Y416730D02*
X32500Y413000D01*
X25730Y418643D02*
X27643Y416730D01*
X28770D01*
X30500Y411000D02*
X32500Y413000D01*
X49500Y463000D02*
X52000D01*
X45270Y416730D02*
X45770D01*
X32230Y425770D02*
X36230D01*
X45270Y416730D01*
X21000Y411000D02*
X30500D01*
X49000Y413000D02*
X49500D01*
X25000Y429000D02*
X25730Y428270D01*
X45770Y416730D02*
X49500Y413000D01*
X31500Y426500D02*
X32230Y425770D01*
X31500Y426500D02*
Y429000D01*
X18750Y421250D02*
Y428750D01*
X18500Y429000D02*
X18750Y428750D01*
Y421250D02*
X19000Y421000D01*
X207002Y415279D02*
Y415280D01*
X334000Y765000D02*
X335488Y763512D01*
X305660Y742510D02*
Y766310D01*
X340960Y721420D02*
X377195Y685185D01*
X648690Y604810D02*
X649500Y604000D01*
X644370Y604810D02*
X648690D01*
X658190Y582810D02*
X659000Y582000D01*
X653870Y582810D02*
X658190D01*
X644809Y573749D02*
X653870Y582810D01*
X622871Y550061D02*
X642530Y569720D01*
X644049D01*
X644809Y570480D02*
Y573749D01*
X644049Y569720D02*
X644809Y570480D01*
X642870Y555050D02*
X652000Y564180D01*
Y569940D01*
X63880Y376880D02*
X63948Y376948D01*
X29376Y442000D02*
X43204D01*
X49500Y433000D02*
X52000D01*
X44270Y438230D02*
X49500Y433000D01*
X44270Y438230D02*
Y440934D01*
X43204Y442000D02*
X44270Y440934D01*
X25000Y451000D02*
X25730Y450270D01*
Y445646D02*
Y450270D01*
Y445646D02*
X29376Y442000D01*
X39500Y451000D02*
X49500Y461000D01*
X31500Y451000D02*
X39500D01*
X76961Y392058D02*
X77670Y392767D01*
Y400350D01*
X86920Y400600D02*
X86920Y400600D01*
X75723Y431363D02*
X77300Y432940D01*
X129620Y251940D02*
X129620D01*
X118340Y258490D02*
X120332Y256498D01*
X125062D01*
X129620Y251940D01*
X127170Y269273D02*
Y273480D01*
Y269273D02*
X129620Y266823D01*
Y251940D02*
Y266823D01*
X821870Y553810D02*
X822370Y554310D01*
X831870D01*
X912350Y703340D02*
Y708220D01*
X902730Y706400D02*
X909290D01*
X912350Y703340D01*
X898990Y721580D02*
X912350Y708220D01*
X690180Y721580D02*
X898990D01*
X920000Y675900D02*
Y715848D01*
X837518Y728392D02*
X907455D01*
X920000Y715848D01*
X695960Y768500D02*
X718160D01*
X694160Y766700D02*
X695960Y768500D01*
X401340Y148570D02*
Y149460D01*
Y134340D02*
Y149460D01*
Y134340D02*
X401370Y134310D01*
X427370D02*
Y149770D01*
X427580Y149980D01*
X439950Y134730D02*
X440370Y134310D01*
X439950Y134730D02*
Y149930D01*
X420686Y134494D02*
X420870Y134310D01*
X420686Y134494D02*
Y145378D01*
X417810Y148254D02*
X420686Y145378D01*
X417810Y148254D02*
Y149190D01*
X419280D01*
X460240Y89360D02*
X460580Y89700D01*
Y96600D01*
X433870Y123900D02*
Y134310D01*
X284620Y321190D02*
Y321945D01*
X640570Y747610D02*
X656870Y731310D01*
X373870Y738310D02*
Y760310D01*
Y738310D02*
X396870Y715310D01*
X347870Y723310D02*
Y759710D01*
X287960Y710810D02*
Y721810D01*
X302460Y724310D02*
Y739310D01*
X578670Y756310D02*
X589470Y767110D01*
X525270Y756310D02*
X578670D01*
X513270Y768310D02*
X525270Y756310D01*
X373870Y760310D02*
X378613Y765053D01*
X347870Y759710D02*
X361170Y773010D01*
X280260Y766310D02*
X292260Y778310D01*
X775018Y611080D02*
X835500D01*
X840480Y536150D02*
Y606100D01*
X835500Y611080D02*
X840480Y606100D01*
Y536150D02*
X857730Y518900D01*
X846800Y580330D02*
Y591650D01*
X682380Y766700D02*
X694160D01*
X678390Y733370D02*
X690180Y721580D01*
X766340Y716780D02*
X862370D01*
X756644Y707084D02*
X766340Y716780D01*
X862370D02*
X883730Y695420D01*
X811430Y728230D02*
X820590D01*
X823498Y710039D02*
X838870Y694667D01*
X773791Y710039D02*
X823498D01*
X856069Y683630D02*
X859299Y680400D01*
X856069Y683630D02*
Y690861D01*
X837620Y709310D02*
X856069Y690861D01*
X838870Y646760D02*
Y694667D01*
X846800Y580330D02*
X856730Y570400D01*
X244950Y342830D02*
X245615D01*
X183240Y404540D02*
X244950Y342830D01*
X275010Y291780D02*
X347130D01*
X267020Y299770D02*
X275010Y291780D01*
X273560Y709749D02*
Y710720D01*
Y696720D02*
Y709749D01*
X183620Y277540D02*
X184742Y278662D01*
X193562D01*
X183620Y252140D02*
Y254690D01*
X296870Y367940D02*
Y651220D01*
X183620Y254690D02*
X296870Y367940D01*
X183220Y404540D02*
X183240D01*
X473420Y342302D02*
X474908Y343790D01*
X604910D01*
X473420Y265718D02*
Y342302D01*
X604910Y343790D02*
X625704Y322996D01*
X347130Y291780D02*
X374680Y264230D01*
X471932D02*
X473420Y265718D01*
X374680Y264230D02*
X471932D01*
X894382Y86310D02*
X895870Y87798D01*
X882870Y86310D02*
X894382D01*
X895870Y87798D02*
Y102830D01*
X446330Y167210D02*
Y168450D01*
Y167210D02*
X461270D01*
X463870Y169810D01*
X464870Y147810D02*
Y167810D01*
Y147310D02*
Y147810D01*
X462548Y144988D02*
X464870Y147310D01*
X450942Y138382D02*
X457548Y144988D01*
X462548D01*
X447313Y138382D02*
X450942D01*
X446870Y134310D02*
Y137939D01*
X447313Y138382D01*
X606870Y64185D02*
X608985Y62070D01*
X619930D01*
X623870Y72310D02*
X631369D01*
X618035Y78145D02*
X623870Y72310D01*
X631369D02*
X634390Y75331D01*
X569377Y92777D02*
X569764Y92390D01*
X336520Y480740D02*
X375870Y520090D01*
Y531316D01*
X346200Y591290D02*
X383220Y628310D01*
X281940Y706456D02*
Y706456D01*
X278647Y709749D02*
X281940Y706456D01*
X273560Y710720D02*
X274531Y709749D01*
X278647D01*
X287960Y701810D02*
Y702060D01*
X286480Y703540D02*
X287960Y702060D01*
X284855Y703540D02*
X286480D01*
X281940Y706456D02*
X284855Y703540D01*
X255290Y679990D02*
X265850D01*
X255060Y680220D02*
X255290Y679990D01*
X73000Y213500D02*
X73032Y213468D01*
Y203577D02*
X73065Y203545D01*
X454770Y306410D02*
Y352432D01*
X456258Y353920D02*
X667982D01*
X454770Y352432D02*
X456258Y353920D01*
X522378Y331777D02*
X528337D01*
X529158Y332598D01*
X625704Y287288D02*
Y322996D01*
X667982Y353920D02*
X683374Y338527D01*
X581999Y326981D02*
X582431D01*
X570377Y326777D02*
X581795D01*
X581999Y326981D01*
X582431D02*
X583260Y327810D01*
X586870Y301310D02*
Y314822D01*
Y301310D02*
X615870Y272310D01*
X339957Y353740D02*
X346027Y359810D01*
X743870Y309560D02*
Y309810D01*
X713994Y359810D02*
X737850Y335955D01*
X346027Y359810D02*
X713994D01*
X743870Y309810D02*
Y310060D01*
X737850Y314456D02*
Y335955D01*
X713730Y344780D02*
X715400D01*
X712060D02*
X713730D01*
X570877Y154777D02*
X579970Y163870D01*
Y165180D01*
X569877Y196777D02*
X580580Y207480D01*
Y207610D01*
X569377Y196777D02*
X569877D01*
X587030Y197833D02*
Y209935D01*
X576474Y187277D02*
X587030Y197833D01*
X547377Y187277D02*
X576474D01*
X604404Y227310D02*
X648927D01*
X587030Y209935D02*
X604404Y227310D01*
X591570Y162845D02*
Y208055D01*
X573035Y144310D02*
X591570Y162845D01*
X549344Y144310D02*
X573035D01*
X605825Y222310D02*
X656627D01*
X591570Y208055D02*
X605825Y222310D01*
X596110Y121993D02*
Y206175D01*
X576394Y102277D02*
X596110Y121993D01*
X547377Y102277D02*
X576394D01*
X607245Y217310D02*
X664327D01*
X596110Y206175D02*
X607245Y217310D01*
X569378Y284777D02*
X581167D01*
X581687Y285297D01*
X604370Y127310D02*
X604550Y127490D01*
Y138600D01*
X758370Y116650D02*
Y140310D01*
Y116650D02*
X761860Y113160D01*
X762740Y99770D02*
X781258Y118287D01*
X703160Y99770D02*
X762740D01*
X725350Y113670D02*
Y139330D01*
X724370Y140310D02*
X725350Y139330D01*
X623370Y120660D02*
X630750Y113280D01*
X623370Y120660D02*
Y127310D01*
X652420Y107010D02*
X669390Y90040D01*
X615170Y107010D02*
X652420D01*
X614870Y107310D02*
X615170Y107010D01*
X657370Y125750D02*
Y140310D01*
X670540Y112300D02*
Y112580D01*
X657370Y125750D02*
X670540Y112580D01*
X691370Y113530D02*
Y140310D01*
Y113530D02*
X691630Y113270D01*
X562532Y301722D02*
X565558D01*
X561870Y301060D02*
X562532Y301722D01*
X791370Y128680D02*
Y140310D01*
Y128680D02*
X792760Y127290D01*
X728370Y331810D02*
X728870D01*
X715400Y344780D02*
X728370Y331810D01*
X569374Y242278D02*
X576857D01*
X580140Y245560D01*
X570377Y154777D02*
X570877D01*
X569377Y111777D02*
X577027D01*
X580650Y115400D01*
X145100Y508440D02*
X146250Y507290D01*
X182070D01*
X183220Y506140D01*
X383220Y628310D02*
X413870D01*
X296870Y651220D02*
X308960Y663310D01*
X125900Y379320D02*
X162340D01*
X180790Y356170D02*
X183220Y353740D01*
X162340Y379320D02*
X180790Y360870D01*
Y356170D02*
Y360870D01*
X110470Y377240D02*
X119130Y385900D01*
X110470Y353980D02*
Y377240D01*
X119130Y385900D02*
X173040D01*
X121470Y353980D02*
Y374890D01*
X125900Y379320D01*
X173040Y385900D02*
X179800Y379140D01*
X183220D01*
X183210Y302530D02*
X183620Y302940D01*
X129100Y367270D02*
X135760D01*
X137470Y368980D02*
X138470Y367980D01*
X94470D02*
X95030Y367420D01*
X99640D01*
X330960Y653810D02*
X331420Y654270D01*
X341510D01*
X377195Y684349D02*
Y685185D01*
X378584Y682024D02*
Y682960D01*
X377195Y684349D02*
X378584Y682960D01*
X218350Y759880D02*
X219580Y758650D01*
X320190Y87240D02*
X358730D01*
X364830Y81140D01*
X305750Y101680D02*
X320190Y87240D01*
X364830Y81140D02*
X413800D01*
X336520Y455340D02*
X351650Y440210D01*
Y415601D02*
X380625Y386625D01*
X351650Y415601D02*
Y440210D01*
X380625Y386625D02*
X776555D01*
X338950Y418710D02*
X377240Y380420D01*
X765760D01*
X783870Y362310D01*
X776555Y386625D02*
X804870Y358310D01*
X356940Y367060D02*
X724120D01*
X336520Y379140D02*
X337892Y377768D01*
X346232D01*
X356940Y367060D01*
X336520Y404540D02*
X339957D01*
X343479Y401018D01*
X344082D01*
X370790Y374310D01*
X752870D01*
X338950Y418710D02*
Y427510D01*
X336520Y429940D02*
X338950Y427510D01*
X336520Y353740D02*
X339957D01*
X391660Y252923D02*
X395097Y256360D01*
X481330Y64850D02*
Y254872D01*
X395097Y256360D02*
X479842D01*
X481330Y254872D01*
X476790Y61390D02*
Y247802D01*
X475302Y249290D02*
X476790Y247802D01*
X398940D02*
X400428Y249290D01*
X398940Y216240D02*
Y247802D01*
X400428Y249290D02*
X475302D01*
X391660Y206928D02*
Y252923D01*
X409060Y233350D02*
X420670D01*
X421070Y233750D01*
X383550Y205440D02*
X390172D01*
X391660Y206928D01*
X383770Y214660D02*
Y223435D01*
X383990Y223655D01*
X383550Y214440D02*
X383770Y214660D01*
X383550Y194990D02*
X384000Y194540D01*
X383550Y194990D02*
Y205440D01*
X407870Y176830D02*
Y190310D01*
X407750Y176710D02*
X407870Y176830D01*
X398940Y216240D02*
X399030Y216330D01*
X408510D01*
X408600Y216420D01*
X401370Y193939D02*
Y204560D01*
Y190310D02*
Y193939D01*
X398940Y206990D02*
X401370Y204560D01*
X398940Y206990D02*
Y207240D01*
X393000Y194540D02*
X393158Y194382D01*
X407870Y190310D02*
X408054Y190494D01*
Y206874D01*
X408600Y207420D01*
X421070Y206440D02*
Y215750D01*
X414554Y199923D02*
X421070Y206440D01*
X414554Y190494D02*
Y199923D01*
X414370Y190310D02*
X414554Y190494D01*
X421054D02*
Y197814D01*
X420870Y190310D02*
X421054Y190494D01*
Y197814D02*
X435160Y211920D01*
X409100Y87650D02*
Y94490D01*
X410090Y95480D01*
X346790Y111340D02*
X366600Y91530D01*
X396890D02*
X400840Y95480D01*
X366600Y91530D02*
X396890D01*
X388818Y106218D02*
X389090Y106490D01*
X388818Y101418D02*
Y106218D01*
X386090Y98690D02*
X388818Y101418D01*
X382660Y98690D02*
X386090D01*
X382100Y98130D02*
X382660Y98690D01*
X400840Y95480D02*
X401090D01*
X321590Y111340D02*
X346790D01*
X315170Y117760D02*
X321590Y111340D01*
X315170Y117760D02*
Y237872D01*
X305750Y101680D02*
Y248422D01*
X361392Y188820D02*
X366870Y183342D01*
X322060Y197010D02*
X330250Y188820D01*
X361392D01*
X322060Y197010D02*
Y211880D01*
X336920Y226740D01*
X305750Y248422D02*
X307238Y249910D01*
X334690D02*
X336920Y252140D01*
X307238Y249910D02*
X334690D01*
X347550Y239360D02*
X354188Y245998D01*
X316658Y239360D02*
X347550D01*
X354188Y245998D02*
Y260272D01*
X315170Y237872D02*
X316658Y239360D01*
X336920Y277540D02*
X354188Y260272D01*
X379390Y139660D02*
Y182380D01*
X336920Y201340D02*
X360430D01*
X379390Y182380D01*
X366870Y129750D02*
Y183342D01*
X379990Y116630D02*
X380240D01*
X366870Y129750D02*
X379990Y116630D01*
X420870Y88210D02*
Y106810D01*
X413800Y81140D02*
X420870Y88210D01*
X379390Y139660D02*
X379465Y139735D01*
X389795D01*
X389870Y139810D01*
X379390Y130410D02*
Y130660D01*
Y130410D02*
X386260Y123540D01*
X396400D01*
X380090Y106490D02*
X380165Y106565D01*
Y116555D01*
X380240Y116630D01*
X400860Y95710D02*
X401090Y95480D01*
X400860Y95710D02*
Y106510D01*
X400630Y106740D02*
X400860Y106510D01*
X410870Y106670D02*
X410940Y106740D01*
X420800D01*
X420870Y106810D01*
X441270Y83910D02*
Y107250D01*
Y83910D02*
X506870Y18310D01*
X508450Y23310D02*
X692870D01*
X451580Y80180D02*
Y96600D01*
Y80180D02*
X508450Y23310D01*
X450920Y107320D02*
X451250Y106990D01*
Y96930D02*
Y106990D01*
Y96930D02*
X451580Y96600D01*
X431090Y106750D02*
X431340Y107000D01*
X441020D01*
X441270Y107250D01*
Y116250D02*
X441305Y116285D01*
X450885D01*
X450920Y116320D01*
X427370Y119720D02*
Y134310D01*
Y119720D02*
X431090Y116000D01*
Y115750D02*
Y116000D01*
X441270Y116250D02*
Y116500D01*
X433870Y123900D02*
X441270Y116500D01*
X400630Y115740D02*
X400665Y115705D01*
X410835D01*
X410870Y115670D01*
X405900Y123540D02*
X407870Y125510D01*
X396400Y123540D02*
X405900D01*
X407870Y125510D02*
Y134310D01*
X414186Y125406D02*
Y134126D01*
X410870Y115670D02*
Y122090D01*
X414186Y125406D01*
X389490Y116630D02*
X396400Y123540D01*
X389240Y116630D02*
X389490D01*
X420870Y115810D02*
Y134310D01*
X427370Y196320D02*
X428850Y197800D01*
Y198139D02*
X440061Y209350D01*
X441870Y209630D02*
Y212310D01*
X435160Y211920D02*
Y225600D01*
X428850Y197800D02*
Y198139D01*
X427370Y190310D02*
Y196320D01*
X440061Y209350D02*
X441590D01*
X441870Y209630D01*
X435160Y225600D02*
X440870Y231310D01*
X438508Y201297D02*
X450407D01*
X456420Y207310D02*
Y224860D01*
X450407Y201297D02*
X456420Y207310D01*
X462850Y206290D02*
Y211290D01*
X446870Y190310D02*
Y193902D01*
X447350Y194382D01*
X450942D01*
X462850Y206290D01*
X456420Y224860D02*
X462870Y231310D01*
X462850Y211290D02*
X463870Y212310D01*
X254060Y709784D02*
Y710720D01*
Y709784D02*
X255560Y708284D01*
Y695720D02*
Y708284D01*
X678390Y762710D02*
X682380Y766700D01*
X678390Y733370D02*
Y762710D01*
X831260Y734650D02*
X837518Y728392D01*
X831260Y734650D02*
Y757640D01*
X825410Y763490D02*
X831260Y757640D01*
X781660Y761500D02*
X786638D01*
X788628Y763490D01*
X825410D01*
X781660Y761500D02*
Y768000D01*
X920000Y564081D02*
Y613029D01*
Y675900D01*
X766870Y703119D02*
X773791Y710039D01*
X805410Y754750D02*
X814910D01*
X815160Y755000D01*
X805160Y754500D02*
X805410Y754750D01*
X767870Y616310D02*
X850070D01*
X872730Y629900D02*
X872980D01*
X855730D02*
X872730D01*
X838870Y646760D02*
X855730Y629900D01*
X766870Y586310D02*
Y602932D01*
X775018Y611080D01*
X818660Y778500D02*
X819308Y777852D01*
X834012D01*
X686790Y614389D02*
Y703609D01*
X682250Y568130D02*
Y701729D01*
X589750Y722230D02*
X668169D01*
X544870Y716310D02*
X667669D01*
X610610Y726770D02*
X670050D01*
X671930Y731310D02*
X702644Y700596D01*
Y698268D02*
Y700596D01*
X668169Y722230D02*
X686790Y703609D01*
X667669Y716310D02*
X682250Y701729D01*
X670050Y726770D02*
X692608Y704212D01*
Y657504D02*
Y704212D01*
X656870Y731310D02*
X671930D01*
X719890Y744396D02*
X722805Y741480D01*
X718160Y747500D02*
X718410D01*
X719890Y746020D01*
Y744396D02*
Y746020D01*
X726910Y768500D02*
X727160D01*
X717660Y780500D02*
X717910D01*
X719390Y777395D02*
Y779020D01*
X717910Y780500D02*
X719390Y779020D01*
Y777395D02*
X722265Y774520D01*
X722514D01*
X736377Y761316D02*
X741976D01*
X742160Y761500D01*
X736400Y768500D02*
X736900Y768000D01*
X742160D01*
X736680Y774980D02*
Y777290D01*
Y774980D02*
X737160Y774500D01*
X742160D01*
X764410Y768750D02*
X764410D01*
X781476Y761316D02*
X781660Y761500D01*
Y755000D02*
X781844Y754816D01*
X804660Y734500D02*
X804910Y734750D01*
X804660Y744500D02*
X804910Y744750D01*
X694160Y741300D02*
X710360Y757500D01*
X722514Y774520D02*
X725430Y771605D01*
Y769980D02*
X726910Y768500D01*
X725430Y769980D02*
Y771605D01*
X727160Y747500D02*
Y757500D01*
X710360D02*
X718160D01*
X727160D02*
X732561D01*
X736377Y761316D01*
X727160Y768500D02*
X736400D01*
X726660Y780500D02*
X733470D01*
X736680Y777290D01*
X814910Y744750D02*
X816106Y745946D01*
X804910Y744750D02*
X814910D01*
X795660Y734500D02*
Y744500D01*
X795410Y744750D02*
X795660Y744500D01*
X774736Y761316D02*
X781476D01*
X795160Y754500D02*
X795410Y754250D01*
X781844Y754816D02*
X794844D01*
X795160Y754500D01*
X779160Y783500D02*
X794660D01*
X799660Y778500D01*
X781660Y774500D02*
X795660D01*
X799660Y778500D01*
X754900Y741480D02*
X774736Y761316D01*
X795410Y744750D02*
Y754250D01*
X764410Y768750D02*
X779160Y783500D01*
X722805Y741480D02*
X754900D01*
X742160Y755000D02*
X752660D01*
X905370Y95890D02*
Y104310D01*
X905250Y95770D02*
X905370Y95890D01*
X906870Y138310D02*
Y147310D01*
X896870Y138310D02*
Y168560D01*
X886120Y179310D02*
X896870Y168560D01*
X759682Y179310D02*
X886120D01*
X904640Y126830D02*
X906120Y128310D01*
X904640Y124330D02*
Y126830D01*
X902640Y122330D02*
X904640Y124330D01*
X901015Y122330D02*
X902640D01*
X896370Y117684D02*
X901015Y122330D01*
X897120Y128310D02*
Y138060D01*
Y128310D02*
X897120Y128310D01*
X893620Y124810D02*
X897120Y128310D01*
X564370Y747610D02*
X589750Y722230D01*
X589770Y747610D02*
X610610Y726770D01*
X728370Y627810D02*
X777870D01*
X715870Y679494D02*
X734644Y698268D01*
X715870Y527310D02*
Y679494D01*
X721061Y633885D02*
X734644Y647468D01*
X725601Y530579D02*
Y589039D01*
X715870Y527310D02*
X724870Y518310D01*
X725601Y530579D02*
X749870Y506310D01*
X727870Y628310D02*
X728370Y627810D01*
X725601Y589039D02*
X734871Y598309D01*
X721061Y528699D02*
X729870Y519889D01*
X721061Y528699D02*
Y633885D01*
X589470Y767110D02*
Y768310D01*
X636870Y129310D02*
Y138810D01*
X569877Y307777D02*
X570377D01*
X567146Y305047D02*
X569877Y307777D01*
X567146Y303310D02*
Y305047D01*
X565558Y301722D02*
X567146Y303310D01*
X562423Y260507D02*
X564108D01*
X561870Y261060D02*
X562423Y260507D01*
X564108D02*
X569378Y265777D01*
X564407Y218310D02*
X569374Y223277D01*
X561620Y218310D02*
X564407D01*
X564322Y173222D02*
X568877Y177777D01*
X562532Y173222D02*
X564322D01*
X561870Y172560D02*
X562532Y173222D01*
X562620Y131060D02*
X565660D01*
X570377Y135777D01*
X724120Y367060D02*
X751870Y339310D01*
X752870Y374310D02*
X767318Y359862D01*
X549343Y316310D02*
X585382D01*
X548376Y317277D02*
X549343Y316310D01*
X585382D02*
X586870Y314822D01*
X694870Y330310D02*
Y340310D01*
X482870Y297310D02*
Y334290D01*
X542901Y326277D02*
X543409Y326786D01*
X779120Y211310D02*
X793870D01*
X758870Y219060D02*
X771370D01*
X779120Y211310D01*
X616620Y211560D02*
X751370D01*
X758870Y219060D01*
X606870Y201810D02*
X616620Y211560D01*
X625432Y193560D02*
X625704Y193288D01*
X615120Y193560D02*
X625432D01*
X606870Y201810D02*
X615120Y193560D01*
X804870Y196810D02*
Y358310D01*
X129100Y550940D02*
X137600D01*
X474644Y599268D02*
X494412D01*
X495370Y598310D01*
X859730Y646900D02*
Y661400D01*
X673620Y690310D02*
Y696060D01*
X666370Y703310D02*
X673620Y696060D01*
X484870Y408060D02*
Y425310D01*
X499870Y408060D02*
Y424310D01*
X766870Y686310D02*
Y703119D01*
X548377Y145277D02*
X549344Y144310D01*
X308960Y663310D02*
Y687310D01*
X387870Y522310D02*
Y588494D01*
Y522310D02*
X484870Y425310D01*
X398644Y525536D02*
Y548468D01*
Y525536D02*
X499870Y424310D01*
X555870Y464310D02*
X582870Y437310D01*
X411870Y526310D02*
X473870Y464310D01*
X555870D01*
X556870Y471310D02*
X584870Y443310D01*
X420870Y527310D02*
X476870Y471310D01*
X556870D01*
X411870Y526310D02*
Y610310D01*
X420870Y527310D02*
Y609310D01*
X480870Y478310D02*
X614870D01*
X430644Y528536D02*
Y548468D01*
Y528536D02*
X480870Y478310D01*
X442870Y529310D02*
Y587042D01*
Y529310D02*
X486870Y485310D01*
X624640D01*
X913730Y620900D02*
Y664900D01*
X905230Y620900D02*
X913730D01*
X917730Y610900D02*
Y610900D01*
X919859Y613029D01*
X892730Y610900D02*
X917730D01*
X906730Y563400D02*
X907411Y564081D01*
X920000D01*
Y500388D02*
Y564081D01*
X891730Y498900D02*
X918512D01*
X920000Y500388D01*
X892730Y619400D02*
X893730Y620400D01*
X892730Y610900D02*
Y619400D01*
X874960Y612388D02*
Y617420D01*
Y612388D02*
X876448Y610900D01*
X892730D01*
X910230Y675900D02*
X920000D01*
X904730Y620400D02*
X905230Y620900D01*
X907750Y509400D02*
Y552880D01*
X907730Y552900D02*
X907750Y552880D01*
X901730Y509400D02*
X907750D01*
X907980Y587150D02*
X908230Y586900D01*
X907980Y587150D02*
Y595650D01*
X907730Y595900D02*
X907980Y595650D01*
X777870Y627810D02*
X778370Y627310D01*
X582870Y628310D02*
X625370D01*
X626370Y629310D01*
X564330Y621770D02*
X580258Y637698D01*
Y645896D01*
X564330Y526429D02*
Y621770D01*
X689870Y523310D02*
X706870D01*
X681870Y515310D02*
X689870Y523310D01*
X631370Y524310D02*
X631620D01*
X633100Y522830D01*
Y521205D02*
Y522830D01*
Y521205D02*
X638996Y515310D01*
X681870D01*
X753870Y524310D02*
X783370D01*
X724870Y481310D02*
Y518310D01*
X640370Y524310D02*
X664370D01*
X673370D02*
Y547310D01*
X598710Y505470D02*
X689255D01*
X596250Y500930D02*
X687374D01*
X673335Y496390D02*
X679640Y490085D01*
X594370Y496390D02*
X673335D01*
X671454Y491850D02*
X674640Y488665D01*
X591330Y491850D02*
X671454D01*
X556870Y526310D02*
X591330Y491850D01*
X564330Y526429D02*
X594370Y496390D01*
X687374Y500930D02*
X699640Y488665D01*
X568870Y528310D02*
X596250Y500930D01*
X689255Y505470D02*
X704640Y490085D01*
X578871Y525309D02*
X598710Y505470D01*
X453870Y628310D02*
X463370D01*
X624870Y481310D02*
Y485080D01*
X624640Y485310D02*
X624870Y485080D01*
X515035Y78145D02*
X618035D01*
X535378Y111277D02*
X535894Y111794D01*
X545354D01*
X545870Y112310D01*
X522378Y117777D02*
X528938D01*
X532471Y121310D01*
X532870D01*
X535378Y154277D02*
X541901D01*
X543934Y156310D01*
X544870D01*
X522378Y160777D02*
X528938D01*
X532471Y164310D01*
X532870D01*
X535378Y196277D02*
X539749Y200648D01*
X544208D01*
X544870Y201310D01*
X522378Y202777D02*
X528938D01*
X532471Y206310D01*
X532870D01*
X535378Y240278D02*
X537108Y242008D01*
X540631D01*
X542934Y244310D01*
X543870D01*
X522378Y245777D02*
X528938D01*
X533471Y250310D01*
X533870D01*
X535378Y284277D02*
X540838D01*
X544870Y288310D01*
X522378Y289777D02*
X528938D01*
X532471Y293310D01*
X532870D01*
X536378Y326277D02*
X542901D01*
X817366Y122310D02*
X817370Y122306D01*
X801870Y122310D02*
X817366D01*
X705041Y95230D02*
X774790D01*
X801870Y122310D01*
X906870Y138310D02*
X906870Y138310D01*
X469216Y530423D02*
X469329Y530537D01*
X457983Y530423D02*
X469216D01*
X457870Y530310D02*
X457983Y530423D01*
X387870Y588494D02*
X398644Y599268D01*
X411870Y610310D02*
X422870Y621310D01*
X420870Y609310D02*
X434870Y623310D01*
X482870Y297310D02*
X487600Y292580D01*
Y171310D02*
Y292580D01*
X493870Y292310D02*
X503870Y302310D01*
X476790Y61390D02*
X510330Y27850D01*
X493870Y59310D02*
Y292310D01*
X481330Y64850D02*
X513790Y32390D01*
X493870Y59310D02*
X516250Y36930D01*
X507870Y168310D02*
X511870Y172310D01*
X507870Y66310D02*
Y168310D01*
X511870Y172310D02*
X521911D01*
X522378Y172778D01*
X496870Y309310D02*
Y331310D01*
Y309310D02*
X503870Y302310D01*
X137600Y550940D02*
X139100Y549440D01*
X73100D02*
X73600Y549940D01*
X84100D01*
X77670Y400350D02*
X77920Y400600D01*
X440370Y134310D02*
Y139810D01*
X440870Y140310D01*
X463870Y128810D02*
X464870Y129810D01*
X463870Y114310D02*
Y128810D01*
X605870Y182810D02*
X606870Y181810D01*
Y167310D02*
Y181810D01*
X636870Y138810D02*
X638370Y140310D01*
X671870Y139810D02*
X672370Y140310D01*
X671870Y129310D02*
Y139810D01*
X704870Y139810D02*
X705370Y140310D01*
X704870Y129310D02*
Y139810D01*
X737870Y138810D02*
X739370Y140310D01*
X737870Y129310D02*
Y138810D01*
X770870Y138810D02*
X772370Y140310D01*
X770870Y129310D02*
Y138810D01*
X785995Y63310D02*
X786870Y64185D01*
X770870Y63310D02*
X785995D01*
X638254Y316787D02*
X638562Y317095D01*
Y326002D01*
X638870Y326310D01*
X683378Y308777D02*
X683612Y308544D01*
X692636D01*
X692870Y308310D01*
X728370Y312810D02*
X728870D01*
X721532Y319648D02*
X728370Y312810D01*
X720532Y319648D02*
X721532D01*
X719870Y320310D02*
X720532Y319648D01*
X743870Y318810D02*
X744370Y319310D01*
Y328810D01*
X744870Y329310D01*
X758870Y318810D02*
X759370Y319310D01*
Y329810D01*
X759870Y330310D01*
X774870Y318810D02*
Y330310D01*
X774870Y330310D01*
X791254Y315788D02*
X791562Y316095D01*
Y326002D01*
X791870Y326310D01*
X765137Y193555D02*
X765404Y193288D01*
X765137Y193555D02*
Y210043D01*
X764870Y210310D02*
X765137Y210043D01*
X804870Y187810D02*
X805120Y187560D01*
X813620D01*
X813870Y187310D01*
X805870Y144310D02*
X815870D01*
X816372Y111808D02*
X816870Y112306D01*
X807368Y111808D02*
X816372D01*
X806870Y111310D02*
X807368Y111808D01*
X817120Y102556D02*
X817370Y102306D01*
X817120Y102556D02*
Y112056D01*
X816870Y112306D02*
X817120Y112056D01*
X841870Y111810D02*
X842054Y111626D01*
X854554D01*
X854870Y111310D01*
X859870Y148310D02*
X860870Y149310D01*
X847870Y148310D02*
X859870D01*
X602120Y462810D02*
X603620Y461310D01*
X617870D01*
X780620D02*
X782120Y462810D01*
X766870Y461310D02*
X780620D01*
X894730Y533400D02*
X894730Y533400D01*
X894730Y533400D02*
Y547900D01*
X856730Y551400D02*
X857730Y550400D01*
Y537900D02*
Y550400D01*
X819370Y603310D02*
X820370Y602310D01*
X830870D01*
X896730Y643400D02*
Y657900D01*
X896730Y657900D01*
X820870Y656810D02*
X821870Y657810D01*
Y667310D01*
X818143Y702269D02*
X818870Y701542D01*
Y691310D02*
Y701542D01*
X668870Y653810D02*
Y665310D01*
X668500Y604000D02*
X669000Y603500D01*
Y593000D02*
Y603500D01*
X664870Y555810D02*
X665370Y556310D01*
X674870D01*
X514370Y530310D02*
X514870Y530810D01*
Y541310D01*
Y587310D02*
Y597810D01*
X511370Y621310D02*
X511620Y621060D01*
Y612560D02*
Y621060D01*
Y612560D02*
X511870Y612310D01*
X509870Y652810D02*
X509870Y652810D01*
Y663310D01*
X508370Y699310D02*
X508870Y698810D01*
Y688310D02*
Y698810D01*
X463870Y168810D02*
X464870Y167810D01*
X440870Y231310D02*
X441870D01*
X393520Y194930D02*
X394549Y195959D01*
X400927Y194382D02*
X401370Y193939D01*
X393158Y194382D02*
X400927D01*
X414186Y134126D02*
X414370Y134310D01*
X389870Y130810D02*
X400927D01*
X401370Y131253D01*
Y134310D01*
X389870Y139810D02*
Y140060D01*
X388390Y141540D02*
X389870Y140060D01*
X423320Y213020D02*
X423590D01*
X462870Y231310D02*
X463870D01*
X435350Y198139D02*
X438508Y201297D01*
X433870Y190310D02*
Y196320D01*
X435350Y197800D01*
Y198139D01*
X440370Y178810D02*
X442818Y176362D01*
X462870Y187810D02*
X463870D01*
X451422Y176362D02*
X462870Y187810D01*
X442818Y176362D02*
X451422D01*
X440370Y178810D02*
Y190310D01*
X386570Y771982D02*
Y773010D01*
X379641Y765053D02*
X386570Y771982D01*
X378613Y765053D02*
X379641D01*
X73100Y513140D02*
X77300Y508940D01*
X106100Y531440D02*
Y531690D01*
X104620Y533170D02*
X106100Y531690D01*
X102370Y533170D02*
X104620D01*
X106100Y531190D02*
Y531440D01*
X95100Y539940D02*
X95600D01*
X128100Y508940D02*
Y509190D01*
X116600Y540440D02*
X117100Y539940D01*
X149244Y521834D02*
X149304D01*
X145100Y517690D02*
X149244Y521834D01*
X139600Y549440D02*
X147870Y541170D01*
X149620D01*
X139100Y549440D02*
X139600D01*
X73100Y513140D02*
Y530440D01*
X95600Y539940D02*
X102370Y533170D01*
X145100Y517440D02*
Y517690D01*
X139100Y530440D02*
X151100D01*
Y523630D02*
Y530440D01*
X149304Y521834D02*
X151100Y523630D01*
X106100Y540440D02*
X116600D01*
X149620Y541170D02*
X151100Y539690D01*
Y539440D02*
Y539690D01*
X106100Y531190D02*
X128100Y509190D01*
X507370Y517310D02*
Y523310D01*
X511140Y527080D01*
X510370Y652810D02*
X518870Y644310D01*
X509870Y652810D02*
X510370D01*
X511140Y527080D02*
X511640D01*
X514370Y529810D01*
Y530310D01*
X511370Y621310D02*
X511620D01*
X518870Y628560D01*
Y644310D01*
X668100Y552580D02*
Y553080D01*
X664870Y555810D02*
X665370D01*
X668100Y552580D02*
X673370Y547310D01*
X665370Y555810D02*
X668100Y553080D01*
X669370Y622310D02*
X675382D01*
X676870Y623798D01*
X676612Y651080D02*
X676870Y650822D01*
Y623798D02*
Y650822D01*
X668870Y653810D02*
X671600Y651080D01*
X676612D01*
X830370Y524310D02*
Y545810D01*
X822370Y553810D02*
X830370Y545810D01*
X821870Y553810D02*
X822370D01*
X830370Y627310D02*
Y654822D01*
X828882Y656310D02*
X830370Y654822D01*
X821370Y656310D02*
X828882D01*
X820870Y656810D02*
X821370Y656310D01*
X467871Y697309D02*
X487369D01*
X622871Y599309D02*
X638869D01*
X644370Y604810D01*
X778871Y598309D02*
X783872Y603310D01*
X800370D01*
X487369Y697309D02*
X489370Y699310D01*
X642868Y698308D02*
X647370Y702810D01*
X625871Y698308D02*
X642868D01*
X778644Y698268D02*
X795642D01*
X799143Y701769D01*
Y702269D01*
X647370Y702810D02*
Y703310D01*
X856730Y570400D02*
X859230Y572900D01*
X875230D01*
X876786Y680400D02*
X877230Y680843D01*
Y682900D01*
X695870Y18310D02*
X744620Y67060D01*
X506870Y18310D02*
X695870D01*
X739620Y70060D02*
Y82685D01*
X692870Y23310D02*
X739620Y70060D01*
X744620Y67060D02*
Y82685D01*
X431090Y106750D02*
X431090Y106750D01*
X783870Y312797D02*
Y362310D01*
X767318Y315988D02*
Y359862D01*
X495370Y520060D02*
Y530310D01*
Y520060D02*
X498120Y517310D01*
X498370D01*
X478329Y530537D02*
X495143D01*
X495370Y530310D01*
X504370Y552810D02*
Y564310D01*
Y552810D02*
X504870Y552310D01*
X474644Y548468D02*
X489006Y562830D01*
X493890D01*
X495370Y564310D01*
X504870Y575810D02*
Y576310D01*
X497100Y568040D02*
X504870Y575810D01*
X497100Y565790D02*
Y568040D01*
X495620Y564310D02*
X497100Y565790D01*
X495370Y564310D02*
X495620D01*
X308960Y687310D02*
X310460Y688810D01*
X277060Y670720D02*
Y691720D01*
X273060Y695720D02*
X277060Y691720D01*
X272560Y695720D02*
X273060D01*
X272560D02*
X273560Y696720D01*
X310460Y688810D02*
Y701310D01*
X297960Y701810D02*
X298210Y701560D01*
X310210D01*
X310460Y701310D01*
X297960Y710810D02*
Y720310D01*
X301960Y724310D01*
X302460D01*
X285460D02*
X287960Y721810D01*
X285460Y724310D02*
Y739310D01*
X287460Y741310D01*
X302460Y739310D02*
X304460Y741310D01*
X305660Y742510D01*
X287460Y741310D02*
Y756808D01*
X280260Y764008D02*
X287460Y756808D01*
X280260Y764008D02*
Y766310D01*
X502370Y621310D02*
X503430Y622370D01*
Y627870D01*
X509370Y633810D01*
X509870D01*
X485870Y621310D02*
X502370D01*
X472370Y628310D02*
X478870D01*
X485870Y621310D01*
X487870Y643310D02*
X488370D01*
X491100Y646040D01*
Y646540D01*
X498370Y653810D01*
Y665310D01*
X489120D02*
X489370D01*
X470319Y646509D02*
X489120Y665310D01*
X467871Y646509D02*
X470319D01*
X489370Y665310D02*
X489620D01*
X491100Y666790D01*
Y669040D01*
X498870Y676810D01*
Y677310D01*
X635370Y629310D02*
X642370Y622310D01*
X660620D01*
X662100Y623790D01*
Y628540D01*
X668370Y634810D01*
X668870D01*
X656370Y653310D02*
Y669310D01*
X647370Y644310D02*
X656370Y653310D01*
X646870Y644310D02*
X647370D01*
X625871Y648061D02*
X648600Y670790D01*
X625871Y647508D02*
Y648061D01*
X648600Y670790D02*
X649100D01*
X656870Y680810D02*
Y681310D01*
X649100Y673040D02*
X656870Y680810D01*
X649100Y670790D02*
Y673040D01*
X642870Y546310D02*
Y555050D01*
X622871Y548509D02*
Y550061D01*
X664370Y536310D02*
X664870Y536810D01*
X664370Y524310D02*
Y536310D01*
X792370Y524310D02*
X821370D01*
Y534310D02*
X821870Y534810D01*
X821370Y524310D02*
Y534310D01*
X809370Y553310D02*
Y568310D01*
X800370Y544310D02*
X809370Y553310D01*
X799870Y544310D02*
X800370D01*
X800120Y568310D02*
X800370D01*
X779319Y547509D02*
X800120Y568310D01*
X778871Y547509D02*
X779319D01*
X809870Y580810D02*
Y581310D01*
X802100Y573040D02*
X809870Y580810D01*
X802100Y569790D02*
Y573040D01*
X800620Y568310D02*
X802100Y569790D01*
X800370Y568310D02*
X800620D01*
X787370Y627310D02*
X821370D01*
Y637310D01*
X820870Y637810D02*
X821370Y637310D01*
X799120Y669310D02*
X799370D01*
X778644Y648834D02*
X799120Y669310D01*
X778644Y647468D02*
Y648834D01*
X808370Y656310D02*
Y669310D01*
X799370Y647310D02*
X808370Y656310D01*
X798870Y647310D02*
X799370D01*
X799370Y669310D02*
X799620D01*
X801100Y670790D01*
Y672414D01*
X805725Y677039D01*
X805913D01*
X808643Y679769D01*
Y680269D01*
X807870Y679496D02*
X808643Y680269D01*
X600620Y548259D02*
X600871Y548509D01*
X600620Y531561D02*
Y548259D01*
X600370Y531310D02*
X600620Y531561D01*
X591370Y531310D02*
Y589808D01*
X600871Y599309D01*
X881730Y629900D02*
X881980D01*
X883460Y631380D01*
X883546Y632868D02*
Y643216D01*
X883460Y631380D02*
Y632782D01*
X883546Y632868D01*
Y643216D02*
X883730Y643400D01*
X872980Y629900D02*
X874460Y631380D01*
Y633630D01*
X876750Y635920D01*
Y642920D01*
X877230Y643400D01*
X879855Y498900D02*
X891730D01*
X872960Y505796D02*
X879855Y498900D01*
X891730D02*
Y509400D01*
X871230Y508900D02*
X871480D01*
X872960Y507420D01*
Y505796D02*
Y507420D01*
X888230Y587400D02*
X888480Y587150D01*
X898980D01*
X899230Y586900D01*
X894730Y572843D02*
Y572900D01*
Y572843D02*
X895173Y572400D01*
X907730D01*
X881730Y572900D02*
Y585150D01*
X879480Y587400D02*
X881730Y585150D01*
X879230Y587400D02*
X879480D01*
X891730Y518400D02*
X901730D01*
X901730Y518400D01*
X888230Y522150D02*
Y533400D01*
Y522150D02*
X891730Y518650D01*
Y518400D02*
Y518650D01*
X900250Y519880D02*
X901730Y518400D01*
X900250Y519880D02*
Y520130D01*
X879980Y518900D02*
X880230Y518650D01*
Y508900D02*
Y518650D01*
Y518900D02*
X880250D01*
X881730Y520380D01*
Y533400D01*
X871230Y518900D02*
Y525460D01*
X873690Y527920D01*
X874750D01*
X875230Y528400D01*
Y533400D01*
X857730Y518900D02*
X871230D01*
X756871Y598309D02*
X757766Y599204D01*
Y606207D02*
X767870Y616310D01*
X757766Y599204D02*
Y606207D01*
X850070Y616310D02*
X878980Y587400D01*
X756871Y576311D02*
X766870Y586310D01*
X756871Y547509D02*
Y576311D01*
X878980Y587400D02*
X879230D01*
X909730Y676400D02*
X910230Y675900D01*
X756644Y647468D02*
Y676084D01*
X766870Y686310D01*
X756644Y698268D02*
Y707084D01*
X881980Y619150D02*
X882230Y618900D01*
X881980Y619150D02*
Y629650D01*
X881730Y629900D02*
X881980Y629650D01*
X873230Y618900D02*
X873480D01*
X874960Y617420D01*
X893730Y629400D02*
X904730D01*
X904730Y629400D01*
X892250Y630880D02*
X893730Y629400D01*
X892250Y630880D02*
Y636120D01*
X896730Y682900D02*
X907480D01*
X909730Y685150D01*
Y685400D01*
X890230Y638140D02*
X892250Y636120D01*
X890230Y638140D02*
Y643400D01*
X904730Y629400D02*
X904980Y629650D01*
X891230Y696900D02*
X891480Y697150D01*
X902480D01*
X902730Y697400D01*
X883730Y682900D02*
Y695420D01*
X890230Y682900D02*
X890414Y683084D01*
Y696084D01*
X891230Y696900D01*
X879980Y518900D02*
X880230D01*
X881546Y533216D02*
X881730Y533400D01*
X889230Y586900D02*
X889230Y586900D01*
X888230Y572900D02*
Y587400D01*
X818600Y131451D02*
Y132830D01*
Y131451D02*
X819600Y130451D01*
Y130205D02*
X821516Y128290D01*
X821761D02*
X823640Y126411D01*
X821516Y128290D02*
X821761D01*
X819600Y130205D02*
Y130451D01*
X823640Y124786D02*
Y126411D01*
Y124786D02*
X826120Y122306D01*
X813870Y153310D02*
X824382D01*
X825870Y144310D02*
Y151822D01*
X824382Y153310D02*
X825870Y151822D01*
X896870Y138310D02*
X896870Y138310D01*
X751522Y174770D02*
X792410D01*
X813870Y153310D01*
X898100Y105060D02*
Y107540D01*
X903640Y113080D01*
X895870Y102830D02*
X898100Y105060D01*
X903640Y114830D02*
X904636Y115826D01*
X903640Y113080D02*
Y114830D01*
X904636Y115826D02*
X904640D01*
X896370Y117306D02*
Y117684D01*
Y116310D02*
Y117306D01*
X897370D01*
X893870D02*
X896370D01*
X893050Y118126D02*
X893870Y117306D01*
X881554Y118126D02*
X893050D01*
X896870Y138310D02*
X897120Y138060D01*
X906120Y128310D02*
X906370D01*
X881370Y124810D02*
X893620D01*
X881370Y118310D02*
X881554Y118126D01*
X841870Y118310D02*
X858462D01*
X864962Y111810D01*
X881370D01*
X825870Y134310D02*
X833870D01*
X836870Y131310D01*
X841870D01*
X825870Y134310D02*
Y144310D01*
X825870Y144310D01*
X816870Y134310D02*
X817120D01*
X818600Y132830D01*
X826120Y122306D02*
X826370D01*
X827393Y123330D01*
X835130D01*
X836610Y124810D01*
X841870D01*
X826370Y102306D02*
X834120D01*
X838120Y98306D01*
X838370D01*
X826620Y112056D02*
X826870Y112306D01*
X826620Y102556D02*
Y112056D01*
X826370Y102306D02*
X826620Y102556D01*
X826870Y112306D02*
X832690Y118126D01*
X841686D01*
X841870Y118310D01*
X522378Y95777D02*
Y108778D01*
X535378Y101277D02*
X546377D01*
X547377Y102277D01*
X522378Y95777D02*
X529878D01*
X535378Y101277D01*
X535378Y144277D02*
X547378D01*
X548377Y145277D01*
X522376Y140529D02*
X526124Y144277D01*
X522374Y140527D02*
X522376Y140529D01*
Y151776D01*
X522374Y140278D02*
Y140527D01*
X526124Y144277D02*
X535378D01*
X522376Y151776D02*
X522378Y151777D01*
X535378Y186277D02*
X546377D01*
X547377Y187277D01*
X522378Y181777D02*
X530878D01*
X535378Y186277D01*
X522378Y181777D02*
Y193778D01*
X535378Y230278D02*
X544874D01*
X547374Y232778D01*
X522378Y223778D02*
X528878D01*
X535378Y230278D01*
X522378Y223778D02*
Y236777D01*
X536378Y316277D02*
X547377D01*
X548376Y317277D01*
X535378Y274277D02*
X546378D01*
X547378Y275277D01*
X522378Y267777D02*
X528878D01*
X535378Y274277D01*
X522378Y267777D02*
Y280777D01*
Y310777D02*
X530878D01*
X536378Y316277D01*
X522378Y310777D02*
Y322777D01*
X683374Y338278D02*
Y338527D01*
X638329Y287362D02*
X638404Y287288D01*
X638329Y287362D02*
Y307712D01*
X638254Y307787D02*
X638329Y307712D01*
X683378Y317777D02*
Y318027D01*
X684858Y319507D01*
X685108D01*
X685911Y320310D01*
X694870D01*
X683376Y317779D02*
X683378Y317777D01*
X683376Y317779D02*
Y329276D01*
X683374Y329277D02*
X683376Y329276D01*
X791254Y306787D02*
Y307038D01*
X789774Y308517D02*
X791254Y307038D01*
X788150Y308517D02*
X789774D01*
X783870Y312797D02*
X788150Y308517D01*
X767318Y315988D02*
X771766Y311540D01*
X773390D01*
X774870Y309810D02*
Y310060D01*
X773390Y311540D02*
X774870Y310060D01*
X758870Y309810D02*
Y310060D01*
X757390Y311540D02*
X758870Y310060D01*
X755766Y311540D02*
X757390D01*
X751870Y315436D02*
X755766Y311540D01*
X751870Y315436D02*
Y339310D01*
X742390Y311540D02*
X743870Y310060D01*
X740766Y311540D02*
X742390D01*
X737850Y314456D02*
X740766Y311540D01*
X696870Y322310D02*
X706870D01*
X694870Y320310D02*
X696870Y322310D01*
X774870Y309560D02*
Y309810D01*
Y309560D02*
X778104Y306326D01*
Y287288D02*
Y306326D01*
X743870Y309560D02*
X752704Y300726D01*
Y287288D02*
Y300726D01*
X758870Y309560D02*
Y309810D01*
Y309560D02*
X765329Y303101D01*
Y287362D02*
Y303101D01*
X739342Y287950D02*
Y299838D01*
Y287950D02*
X740004Y287288D01*
X737870Y301310D02*
X739342Y299838D01*
X724870Y301310D02*
X737870D01*
X710100Y316080D02*
X724870Y301310D01*
X752704Y186288D02*
X759682Y179310D01*
X740004Y186287D02*
X751522Y174770D01*
X743512Y170080D02*
X774600D01*
X781870Y162810D01*
Y162310D02*
Y162810D01*
X727304Y186287D02*
X743512Y170080D01*
X752704Y186288D02*
Y193288D01*
X740004Y186287D02*
Y193288D01*
X510330Y27850D02*
X688330D01*
X734390Y73910D01*
X516250Y36930D02*
X638331D01*
X513790Y32390D02*
X686450D01*
X729390Y75331D01*
X638331Y36930D02*
X654620Y53219D01*
X636451Y41470D02*
X649620Y54640D01*
X498790Y62390D02*
X519710Y41470D01*
X636451D01*
X729390Y75331D02*
Y82455D01*
X734390Y73910D02*
Y82455D01*
X699850Y90040D02*
X705041Y95230D01*
X734390Y82455D02*
X734620Y82685D01*
X699850Y82915D02*
Y90040D01*
X699620Y82685D02*
X699850Y82915D01*
X729390Y82455D02*
X729620Y82685D01*
X790804Y193288D02*
Y195212D01*
X792403Y196810D01*
X804870D01*
X613870Y149310D02*
X616600Y152040D01*
Y154040D02*
X636870Y174310D01*
X616600Y152040D02*
Y154040D01*
X636870Y174310D02*
X651827D01*
X613870Y149310D02*
X614870Y148310D01*
Y116810D02*
Y148310D01*
X727304Y280287D02*
Y287288D01*
X664327Y217310D02*
X727304Y280287D01*
X714604D02*
Y287288D01*
X656627Y222310D02*
X714604Y280287D01*
X701904D02*
Y287288D01*
X648927Y227310D02*
X701904Y280287D01*
X689204D02*
Y287288D01*
X641694Y232778D02*
X689204Y280287D01*
X547374Y232778D02*
X641694D01*
X547378Y275277D02*
X577902D01*
X586870Y266310D01*
X662527D01*
X676504Y280287D02*
Y287288D01*
X662527Y266310D02*
X676504Y280287D01*
X663804D02*
Y287288D01*
X655827Y272310D02*
X663804Y280287D01*
X615870Y272310D02*
X655827D01*
X710100Y316080D02*
Y319580D01*
X707370Y322310D02*
X710100Y319580D01*
X706870Y322310D02*
X707370D01*
X521846Y302310D02*
X522378Y301777D01*
X503870Y302310D02*
X521846D01*
X626935Y46375D02*
X644620Y64060D01*
X507870Y66310D02*
X523265Y50915D01*
X521384Y46375D02*
X626935D01*
X523265Y50915D02*
X622475D01*
X639620Y68060D01*
X503330Y64429D02*
X521384Y46375D01*
X644620Y64060D02*
Y82685D01*
X639620Y68060D02*
Y82685D01*
X654620Y53219D02*
Y82685D01*
X649620Y54640D02*
Y82685D01*
X514338Y258778D02*
X522378D01*
X498790Y243230D02*
X514338Y258778D01*
X498790Y62390D02*
Y243230D01*
X508338Y214778D02*
X522378D01*
X503330Y209770D02*
X508338Y214778D01*
X503330Y64429D02*
Y209770D01*
X512410Y80770D02*
X515035Y78145D01*
X512410Y121063D02*
X522374Y131028D01*
X512410Y80770D02*
Y121063D01*
X522374Y131028D02*
Y131278D01*
X634390Y82455D02*
X634620Y82685D01*
X634390Y75331D02*
Y82455D01*
X526221Y82685D02*
X629620D01*
X522378Y86528D02*
X526221Y82685D01*
X522378Y86528D02*
Y86777D01*
X684620Y82685D02*
Y95625D01*
X708782Y119788D02*
X715258D01*
X684620Y95625D02*
X708782Y119788D01*
X694850Y82915D02*
Y91460D01*
X689620Y82685D02*
Y92650D01*
X694850Y91460D02*
X703160Y99770D01*
X701280Y104310D02*
X734280D01*
X689620Y92650D02*
X701280Y104310D01*
X734280D02*
X746528Y116558D01*
X746778D02*
X748258Y118038D01*
X746528Y116558D02*
X746778D01*
X748258Y118038D02*
Y118287D01*
X649622Y117557D02*
X674620Y92560D01*
X648738Y117557D02*
X649622D01*
X674620Y82685D02*
Y92560D01*
X647258Y119038D02*
X648738Y117557D01*
X647258Y119038D02*
Y119288D01*
X694620Y82685D02*
X694850Y82915D01*
X682258Y103940D02*
Y119788D01*
X679620Y101302D02*
X682258Y103940D01*
X679620Y82685D02*
Y101302D01*
X669390Y82915D02*
X669620Y82685D01*
X669390Y82915D02*
Y90040D01*
X781258Y127288D02*
Y161698D01*
X781870Y162310D01*
X748258Y127288D02*
Y161698D01*
X748870Y162310D01*
X715258Y128787D02*
Y161922D01*
X714870Y162310D02*
X715258Y161922D01*
X682258Y128787D02*
Y161922D01*
X681870Y162310D02*
X682258Y161922D01*
X647258Y128287D02*
Y161698D01*
X647870Y162310D01*
X651827Y174310D02*
X663804Y186287D01*
X689204Y169645D02*
Y193288D01*
X681870Y162310D02*
Y162810D01*
X685100Y165540D02*
X689204Y169645D01*
X681870Y162810D02*
X684600Y165540D01*
X685100D01*
X650600D02*
X655757D01*
X665800Y175583D02*
X665800D01*
X655757Y165540D02*
X665800Y175583D01*
X647870Y162810D02*
X650600Y165540D01*
X647870Y162310D02*
Y162810D01*
X727304Y186287D02*
Y193288D01*
X748870Y162310D02*
Y162810D01*
X746140Y165540D02*
X748870Y162810D01*
X735352Y165540D02*
X746140D01*
X714604Y186287D02*
X735352Y165540D01*
X714604Y186287D02*
Y193288D01*
X714870Y162310D02*
Y162810D01*
X701904Y175776D02*
X714870Y162810D01*
X701904Y175776D02*
Y193288D01*
X665800Y175583D02*
X676504Y186287D01*
Y193288D01*
X663804Y186287D02*
Y193288D01*
X765329Y287362D02*
X765404Y287288D01*
X790804D02*
X791029Y287512D01*
Y306562D01*
X791254Y306787D01*
X385870Y705181D02*
Y705310D01*
X361170Y730010D02*
Y747610D01*
Y730010D02*
X385870Y705310D01*
X372121Y699060D02*
Y699060D01*
X347870Y723310D02*
X372121Y699060D01*
Y699060D02*
X391871Y679309D01*
Y697309D02*
Y699181D01*
X385870Y705181D02*
X391871Y699181D01*
X505494Y715310D02*
X527870Y692934D01*
X396870Y715310D02*
X505494D01*
X527870Y567510D02*
Y692934D01*
Y567510D02*
X546871Y548509D01*
X534870Y611310D02*
X546871Y599309D01*
X506870Y721310D02*
X534870Y693310D01*
Y611310D02*
Y693310D01*
X412870Y721310D02*
X506870D01*
X386570Y747610D02*
X412870Y721310D01*
X434870Y623310D02*
Y686310D01*
X422870Y621310D02*
Y644310D01*
X411970Y747610D02*
X433270Y726310D01*
X509870D02*
X532965Y703215D01*
X433270Y726310D02*
X509870D01*
X437370Y747610D02*
X453670Y731310D01*
X516869D01*
X549871Y698308D01*
X391871Y646509D02*
Y679309D01*
X549871Y647508D02*
Y685199D01*
X532965Y702104D02*
X549871Y685199D01*
X532965Y702104D02*
Y703215D01*
X513570Y747610D02*
X544870Y716310D01*
X682250Y568130D02*
X702871Y547509D01*
X686790Y614389D02*
X702871Y598309D01*
X692608Y657504D02*
X702644Y647468D01*
X729870Y481310D02*
Y519889D01*
X754870Y481310D02*
Y509310D01*
X734871Y529309D02*
Y547509D01*
Y529309D02*
X754870Y509310D01*
X749870Y481310D02*
Y506310D01*
X619415Y437310D02*
X654640Y472535D01*
X582870Y437310D02*
X619415D01*
X618994Y443310D02*
X649640Y473955D01*
X584870Y443310D02*
X618994D01*
X423871Y697309D02*
X434870Y686310D01*
X423871Y697309D02*
Y697309D01*
X614870Y478310D02*
X621140Y472040D01*
X654640Y481080D02*
X654870Y481310D01*
X654640Y472535D02*
Y481080D01*
X649640D02*
X649870Y481310D01*
X649640Y473955D02*
Y481080D01*
X629640D02*
X629870Y481310D01*
X629640Y473955D02*
Y481080D01*
X627724Y472040D02*
X629640Y473955D01*
X621140Y472040D02*
X627724D01*
X430644Y599268D02*
X442870Y587042D01*
X556870Y526310D02*
Y626310D01*
X674640Y481540D02*
Y488665D01*
X679640Y481540D02*
Y490085D01*
X674640Y481540D02*
X674870Y481310D01*
X556870Y626310D02*
X568870Y638310D01*
X580258Y645896D02*
X581871Y647508D01*
X568870Y685307D02*
X581871Y698308D01*
X568870Y638310D02*
Y685307D01*
Y528310D02*
Y589308D01*
X578871Y599309D01*
X679640Y481540D02*
X679870Y481310D01*
X699640Y481540D02*
X699870Y481310D01*
X704640Y481540D02*
Y490085D01*
X699640Y481540D02*
Y488665D01*
X578871Y525309D02*
Y548509D01*
X704640Y481540D02*
X704870Y481310D01*
D13*
X58625Y255250D02*
X72828D01*
X74000Y256422D01*
Y266049D01*
X330178Y699735D02*
X333400Y702956D01*
X58625Y225250D02*
X72250D01*
X255560Y660720D02*
X265060D01*
X255060Y661220D02*
X255560Y660720D01*
X71635Y221850D02*
Y222100D01*
X333400Y702956D02*
X337956D01*
X345460Y687310D02*
Y695452D01*
X327960Y688310D02*
X330178Y690527D01*
Y699735D01*
X337956Y702956D02*
X345460Y695452D01*
X254060Y710720D02*
X264560D01*
X330960Y672810D02*
X331460Y673310D01*
X341960D01*
X319460Y701310D02*
X319960Y701810D01*
X329460D01*
X329960Y702310D01*
X320960Y740810D02*
X321460Y741310D01*
X320960Y728310D02*
Y740810D01*
X268960Y739810D02*
X270460Y741310D01*
X268960Y728310D02*
Y739810D01*
D64*
X208000Y704000D02*
D03*
Y694000D02*
D03*
X80000Y631000D02*
D03*
Y641000D02*
D03*
X121000Y749000D02*
D03*
Y759000D02*
D03*
X536378Y326277D02*
D03*
Y316277D02*
D03*
X535378Y284277D02*
D03*
Y274277D02*
D03*
Y196277D02*
D03*
Y186277D02*
D03*
X535378Y240278D02*
D03*
Y230278D02*
D03*
Y111277D02*
D03*
Y101277D02*
D03*
X535378Y154277D02*
D03*
Y144277D02*
D03*
X694870Y330310D02*
D03*
Y320310D02*
D03*
D65*
X60625Y225250D02*
D03*
Y245250D02*
D03*
Y240250D02*
D03*
Y235250D02*
D03*
Y250250D02*
D03*
Y230250D02*
D03*
Y255250D02*
D03*
Y260250D02*
D03*
D66*
X60675Y274750D02*
D03*
X60700Y218800D02*
D03*
X60675Y266750D02*
D03*
X60700Y210800D02*
D03*
D67*
X101000Y656000D02*
D03*
Y628000D02*
D03*
X69000Y713000D02*
D03*
Y685000D02*
D03*
X101000Y713000D02*
D03*
Y685000D02*
D03*
D68*
X111500Y739000D02*
D03*
X102500D02*
D03*
X205500Y732000D02*
D03*
X214500D02*
D03*
X112500Y775000D02*
D03*
X121500D02*
D03*
X401090Y95480D02*
D03*
X410090D02*
D03*
X380090Y106490D02*
D03*
X389090D02*
D03*
X319460Y701310D02*
D03*
X310460D02*
D03*
X264560Y710720D02*
D03*
X273560D02*
D03*
X795660Y744500D02*
D03*
X804660D02*
D03*
X726660Y780500D02*
D03*
X717660D02*
D03*
X795660Y734500D02*
D03*
X804660D02*
D03*
X718160Y747500D02*
D03*
X727160D02*
D03*
Y757500D02*
D03*
X718160D02*
D03*
X727160Y768500D02*
D03*
X718160D02*
D03*
X882230Y696900D02*
D03*
X891230D02*
D03*
X872730Y629900D02*
D03*
X881730D02*
D03*
X879230Y587400D02*
D03*
X888230D02*
D03*
X871230Y518900D02*
D03*
X880230D02*
D03*
X873230Y618900D02*
D03*
X882230D02*
D03*
X899230Y586900D02*
D03*
X908230D02*
D03*
X871230Y508900D02*
D03*
X880230D02*
D03*
X460580Y96600D02*
D03*
X451580D02*
D03*
X647370Y669310D02*
D03*
X656370D02*
D03*
X489370Y665310D02*
D03*
X498370D02*
D03*
X800370Y568310D02*
D03*
X809370D02*
D03*
X380240Y116630D02*
D03*
X389240D02*
D03*
X393000Y194540D02*
D03*
X384000D02*
D03*
X660370Y622310D02*
D03*
X669370D02*
D03*
X502370Y621310D02*
D03*
X511370D02*
D03*
X821370Y524310D02*
D03*
X830370D02*
D03*
X591370Y531310D02*
D03*
X600370D02*
D03*
X643500Y569000D02*
D03*
X652500D02*
D03*
X799370Y669310D02*
D03*
X808370D02*
D03*
X495370Y564310D02*
D03*
X504370D02*
D03*
X626370Y629310D02*
D03*
X635370D02*
D03*
X664370Y524310D02*
D03*
X673370D02*
D03*
X821370Y627310D02*
D03*
X830370D02*
D03*
X498370Y517310D02*
D03*
X507370D02*
D03*
X463370Y628310D02*
D03*
X472370D02*
D03*
X783370Y524310D02*
D03*
X792370D02*
D03*
X631370D02*
D03*
X640370D02*
D03*
X778370Y627310D02*
D03*
X787370D02*
D03*
X825870Y134310D02*
D03*
X816870D02*
D03*
X846370Y100310D02*
D03*
X837370D02*
D03*
X826370Y102306D02*
D03*
X817370D02*
D03*
X826370Y122306D02*
D03*
X817370D02*
D03*
X469329Y530537D02*
D03*
X478329D02*
D03*
X897370Y128310D02*
D03*
X906370D02*
D03*
X896370Y116310D02*
D03*
X905370D02*
D03*
X896370Y104310D02*
D03*
X905370D02*
D03*
X77920Y400600D02*
D03*
X86920D02*
D03*
X86920Y411600D02*
D03*
X77920D02*
D03*
D69*
X112000Y730000D02*
D03*
X102000D02*
D03*
X205000Y722000D02*
D03*
X215000D02*
D03*
X205000Y713000D02*
D03*
X215000D02*
D03*
X906870Y138310D02*
D03*
X896870D02*
D03*
X805160Y754500D02*
D03*
X795160D02*
D03*
X815870Y144310D02*
D03*
X825870D02*
D03*
X816870Y112306D02*
D03*
X826870D02*
D03*
D70*
X112000Y749500D02*
D03*
Y758500D02*
D03*
X410870Y106670D02*
D03*
Y115670D02*
D03*
X379390Y139660D02*
D03*
Y130660D02*
D03*
X441270Y116250D02*
D03*
Y107250D02*
D03*
X758870Y309810D02*
D03*
Y318810D02*
D03*
X774870Y309810D02*
D03*
Y318810D02*
D03*
X791254Y306787D02*
D03*
Y315788D02*
D03*
X804870Y196810D02*
D03*
Y187810D02*
D03*
X638254Y307787D02*
D03*
Y316787D02*
D03*
X743870Y318810D02*
D03*
Y309810D02*
D03*
X781258Y127288D02*
D03*
Y118287D02*
D03*
X748258Y127288D02*
D03*
Y118287D02*
D03*
X614870Y116810D02*
D03*
Y107810D02*
D03*
X715258Y128787D02*
D03*
Y119788D02*
D03*
X647258Y128287D02*
D03*
Y119288D02*
D03*
X682258Y128787D02*
D03*
Y119788D02*
D03*
X86300Y267570D02*
D03*
Y258570D02*
D03*
X73000Y213500D02*
D03*
Y222500D02*
D03*
X74000Y265500D02*
D03*
Y274500D02*
D03*
X420870Y106810D02*
D03*
Y115810D02*
D03*
X297960Y710810D02*
D03*
Y701810D02*
D03*
X287960Y710810D02*
D03*
Y701810D02*
D03*
X400630Y106740D02*
D03*
Y115740D02*
D03*
X902730Y697400D02*
D03*
Y706400D02*
D03*
X909730Y676400D02*
D03*
Y685400D02*
D03*
X906730Y563400D02*
D03*
Y572400D02*
D03*
X893730Y620400D02*
D03*
Y629400D02*
D03*
X891730Y509400D02*
D03*
Y518400D02*
D03*
X904730Y629400D02*
D03*
Y620400D02*
D03*
X901730Y518400D02*
D03*
Y509400D02*
D03*
X383550Y214440D02*
D03*
Y205440D02*
D03*
X398940Y207240D02*
D03*
Y216240D02*
D03*
X121470Y353980D02*
D03*
Y344980D02*
D03*
X389870Y139810D02*
D03*
Y130810D02*
D03*
X110470Y353980D02*
D03*
Y344980D02*
D03*
X408600Y207420D02*
D03*
Y216420D02*
D03*
X431090Y115750D02*
D03*
Y106750D02*
D03*
X450920Y116320D02*
D03*
Y107320D02*
D03*
X522378Y331777D02*
D03*
Y322777D02*
D03*
Y310777D02*
D03*
Y301777D02*
D03*
Y289777D02*
D03*
Y280777D02*
D03*
Y267777D02*
D03*
Y258778D02*
D03*
Y202777D02*
D03*
Y193778D02*
D03*
Y181777D02*
D03*
Y172778D02*
D03*
X522378Y245777D02*
D03*
Y236777D02*
D03*
Y223778D02*
D03*
Y214778D02*
D03*
X522378Y117777D02*
D03*
Y108778D02*
D03*
Y95777D02*
D03*
Y86777D02*
D03*
X145100Y508440D02*
D03*
Y517440D02*
D03*
X522378Y160777D02*
D03*
Y151777D02*
D03*
X522374Y140278D02*
D03*
Y131278D02*
D03*
X683378Y308777D02*
D03*
Y317777D02*
D03*
X683374Y329277D02*
D03*
Y338278D02*
D03*
X106100Y531440D02*
D03*
Y540440D02*
D03*
X151100Y530440D02*
D03*
Y539440D02*
D03*
D71*
X49500Y413000D02*
D03*
X32500D02*
D03*
X817660Y778500D02*
D03*
X800660D02*
D03*
X310960Y688310D02*
D03*
X327960D02*
D03*
X272560Y695720D02*
D03*
X255560D02*
D03*
X302460Y724310D02*
D03*
X285460D02*
D03*
X270460Y741310D02*
D03*
X287460D02*
D03*
X321460Y741310D02*
D03*
X304460D02*
D03*
X861870Y149310D02*
D03*
X878870D02*
D03*
X205000Y759000D02*
D03*
X222000D02*
D03*
X205000Y774500D02*
D03*
X222000D02*
D03*
D72*
X18500Y451000D02*
D03*
X25000D02*
D03*
X31500D02*
D03*
X18500Y429000D02*
D03*
X25000D02*
D03*
X31500D02*
D03*
D73*
X135000Y642000D02*
D03*
X183510Y642247D02*
D03*
D74*
X186000Y712750D02*
D03*
Y719250D02*
D03*
Y699750D02*
D03*
Y706250D02*
D03*
Y738750D02*
D03*
Y725750D02*
D03*
Y732250D02*
D03*
X130000Y738750D02*
D03*
Y732250D02*
D03*
Y719250D02*
D03*
Y725750D02*
D03*
Y712750D02*
D03*
Y699750D02*
D03*
Y706250D02*
D03*
Y693250D02*
D03*
D75*
X186000D02*
D03*
D76*
X158000Y716000D02*
D03*
D77*
X139870Y328480D02*
D03*
X127170D02*
D03*
X114470D02*
D03*
X101770D02*
D03*
X139870Y273480D02*
D03*
X127170D02*
D03*
X114470D02*
D03*
D78*
X101770D02*
D03*
D79*
X899200Y427980D02*
D03*
X41030Y116800D02*
D03*
D80*
X602120Y462810D02*
D03*
X782120D02*
D03*
X606870Y64185D02*
D03*
X786870D02*
D03*
D81*
X759870Y481310D02*
D03*
X754870D02*
D03*
X749870D02*
D03*
X744870D02*
D03*
X739870D02*
D03*
X734870D02*
D03*
X729870D02*
D03*
X714870D02*
D03*
X709870D02*
D03*
X704870D02*
D03*
X699870D02*
D03*
X684870D02*
D03*
X679870D02*
D03*
X674870D02*
D03*
X669870D02*
D03*
X664870D02*
D03*
X659870D02*
D03*
X654870D02*
D03*
X649870D02*
D03*
X644870D02*
D03*
X639870D02*
D03*
X634870D02*
D03*
X629870D02*
D03*
X624870D02*
D03*
X694870D02*
D03*
X689870D02*
D03*
X724870D02*
D03*
X719870D02*
D03*
X764620Y82685D02*
D03*
X759620D02*
D03*
X754620D02*
D03*
X749620D02*
D03*
X744620D02*
D03*
X739620D02*
D03*
X734620D02*
D03*
X719620D02*
D03*
X714620D02*
D03*
X709620D02*
D03*
X704620D02*
D03*
X689620D02*
D03*
X684620D02*
D03*
X679620D02*
D03*
X674620D02*
D03*
X669620D02*
D03*
X664620D02*
D03*
X659620D02*
D03*
X654620D02*
D03*
X649620D02*
D03*
X644620D02*
D03*
X639620D02*
D03*
X634620D02*
D03*
X629620D02*
D03*
X699620D02*
D03*
X694620D02*
D03*
X729620D02*
D03*
X724620D02*
D03*
D82*
X668870Y653810D02*
D03*
X646870Y644310D02*
D03*
X668870Y634810D02*
D03*
X509870Y652810D02*
D03*
X487870Y643310D02*
D03*
X509870Y633810D02*
D03*
X821870Y553810D02*
D03*
X799870Y544310D02*
D03*
X821870Y534810D02*
D03*
X664870Y555810D02*
D03*
X642870Y546310D02*
D03*
X664870Y536810D02*
D03*
X820870Y656810D02*
D03*
X798870Y647310D02*
D03*
X820870Y637810D02*
D03*
X139100Y549440D02*
D03*
X117100Y539940D02*
D03*
X139100Y530440D02*
D03*
X330960Y672810D02*
D03*
X308960Y663310D02*
D03*
X330960Y653810D02*
D03*
X255060Y661220D02*
D03*
X277060Y670720D02*
D03*
X255060Y680220D02*
D03*
X860870Y76810D02*
D03*
X882870Y86310D02*
D03*
X860870Y95810D02*
D03*
X569378Y284777D02*
D03*
X547378Y275277D02*
D03*
X569378Y265777D02*
D03*
X569377Y196777D02*
D03*
X547377Y187277D02*
D03*
X569377Y177777D02*
D03*
X570377Y326777D02*
D03*
X548376Y317277D02*
D03*
X570377Y307777D02*
D03*
X569374Y242278D02*
D03*
X547374Y232778D02*
D03*
X569374Y223277D02*
D03*
X569377Y111777D02*
D03*
X547377Y102277D02*
D03*
X569377Y92777D02*
D03*
X570377Y154777D02*
D03*
X548377Y145277D02*
D03*
X570377Y135777D02*
D03*
X728870Y331810D02*
D03*
X706870Y322310D02*
D03*
X728870Y312810D02*
D03*
X73100Y530440D02*
D03*
X95100Y539940D02*
D03*
X73100Y549440D02*
D03*
D83*
X514370Y530310D02*
D03*
X504870Y552310D02*
D03*
X495370Y530310D02*
D03*
X623370Y127310D02*
D03*
X613870Y149310D02*
D03*
X604370Y127310D02*
D03*
X791370Y140310D02*
D03*
X781870Y162310D02*
D03*
X772370Y140310D02*
D03*
X758370D02*
D03*
X748870Y162310D02*
D03*
X739370Y140310D02*
D03*
X657370D02*
D03*
X647870Y162310D02*
D03*
X638370Y140310D02*
D03*
X724370D02*
D03*
X714870Y162310D02*
D03*
X705370Y140310D02*
D03*
X691370D02*
D03*
X681870Y162310D02*
D03*
X672370Y140310D02*
D03*
X647370Y703310D02*
D03*
X656870Y681310D02*
D03*
X666370Y703310D02*
D03*
X489370Y699310D02*
D03*
X498870Y677310D02*
D03*
X508370Y699310D02*
D03*
X800370Y603310D02*
D03*
X809870Y581310D02*
D03*
X819370Y603310D02*
D03*
X649500Y604000D02*
D03*
X659000Y582000D02*
D03*
X668500Y604000D02*
D03*
X799143Y702269D02*
D03*
X808643Y680269D02*
D03*
X818143Y702269D02*
D03*
X496500Y599000D02*
D03*
X506000Y577000D02*
D03*
X515500Y599000D02*
D03*
D84*
X118340Y258490D02*
D03*
D85*
X101340D02*
D03*
X120340Y239490D02*
D03*
X101340D02*
D03*
D86*
X18000Y615400D02*
D03*
Y658000D02*
D03*
D87*
X52000Y435000D02*
D03*
Y463000D02*
D03*
D88*
X781660Y774500D02*
D03*
Y768000D02*
D03*
Y761500D02*
D03*
Y755000D02*
D03*
X742160D02*
D03*
Y761500D02*
D03*
Y768000D02*
D03*
X881370Y131310D02*
D03*
Y124810D02*
D03*
Y118310D02*
D03*
Y111810D02*
D03*
X841870D02*
D03*
Y118310D02*
D03*
Y124810D02*
D03*
X144500Y768500D02*
D03*
Y775000D02*
D03*
Y781500D02*
D03*
Y788000D02*
D03*
X184000D02*
D03*
Y781500D02*
D03*
Y775000D02*
D03*
D89*
X742160Y774500D02*
D03*
X841870Y131310D02*
D03*
X184000Y768500D02*
D03*
D90*
X877230Y682900D02*
D03*
X883730D02*
D03*
X890230D02*
D03*
X896730D02*
D03*
Y643400D02*
D03*
X890230D02*
D03*
X883730D02*
D03*
X875230Y572900D02*
D03*
X881730D02*
D03*
X888230D02*
D03*
X894730D02*
D03*
Y533400D02*
D03*
X888230D02*
D03*
X881730D02*
D03*
D91*
X877230Y643400D02*
D03*
X875230Y533400D02*
D03*
D92*
X446870Y134310D02*
D03*
X440370D02*
D03*
X433870D02*
D03*
X427370D02*
D03*
X420870D02*
D03*
X414370D02*
D03*
X407870D02*
D03*
Y190310D02*
D03*
X414370D02*
D03*
X420870D02*
D03*
X427370D02*
D03*
X433870D02*
D03*
X440370D02*
D03*
X401370Y134310D02*
D03*
Y190310D02*
D03*
D93*
X446870D02*
D03*
D94*
X714604Y287288D02*
D03*
X727304D02*
D03*
X676504D02*
D03*
X778104D02*
D03*
X790804D02*
D03*
X765404D02*
D03*
X740004D02*
D03*
X752704D02*
D03*
X663804D02*
D03*
X638404D02*
D03*
X651104D02*
D03*
X625704D02*
D03*
X778104Y193288D02*
D03*
X752704D02*
D03*
X765404D02*
D03*
X790804D02*
D03*
X651104D02*
D03*
X701904D02*
D03*
X689204D02*
D03*
X663804D02*
D03*
X676504D02*
D03*
X638404D02*
D03*
X740004D02*
D03*
X727304D02*
D03*
X714604D02*
D03*
X701904Y287288D02*
D03*
X689204D02*
D03*
D95*
X625704Y193288D02*
D03*
D96*
X605870Y183810D02*
D03*
Y200810D02*
D03*
X859730Y662400D02*
D03*
Y679400D02*
D03*
X856730Y552400D02*
D03*
Y569400D02*
D03*
X89470Y349980D02*
D03*
Y366980D02*
D03*
X138470Y349980D02*
D03*
Y366980D02*
D03*
X464870Y147810D02*
D03*
Y130810D02*
D03*
X421070Y215750D02*
D03*
Y232750D02*
D03*
X463870Y169810D02*
D03*
Y186810D02*
D03*
X466580Y213440D02*
D03*
Y230440D02*
D03*
X445320Y213580D02*
D03*
Y230580D02*
D03*
D97*
X59633Y265707D02*
X60675Y266750D01*
X51708Y265707D02*
X59633D01*
X58625Y240250D02*
X70625D01*
X84543D01*
X58625Y250250D02*
X68868D01*
X70625Y240250D02*
Y248493D01*
X68868Y250250D02*
X70625Y248493D01*
X41000Y255000D02*
X51708Y265707D01*
X41000Y232000D02*
Y255000D01*
Y232000D02*
X50625Y222375D01*
Y222300D02*
Y222375D01*
Y222300D02*
X52675Y220250D01*
X59250D01*
X60700Y218800D01*
X47000Y237007D02*
Y243493D01*
X48757Y235250D02*
X58625D01*
X47000Y237007D02*
X48757Y235250D01*
Y245250D02*
X58625D01*
X47000Y243493D02*
X48757Y245250D01*
X84543Y240250D02*
X86300Y242007D01*
Y258570D01*
X86050Y258070D02*
X100920D01*
X101723Y241082D02*
Y244223D01*
X100957Y241082D02*
X101723D01*
X100957Y237899D02*
Y241082D01*
X58625Y235250D02*
X98309D01*
X100957Y237899D01*
X100920Y258070D02*
X101555Y258705D01*
X101723Y244223D02*
X109060Y251560D01*
Y264473D02*
X114470Y269883D01*
X109060Y251560D02*
Y264473D01*
X101555Y258705D02*
Y273265D01*
X114470Y269883D02*
Y273480D01*
X101555Y273265D02*
X101770Y273480D01*
D98*
X222500Y759000D02*
X250000D01*
X222500Y774500D02*
X250000D01*
X222000Y759500D02*
Y774500D01*
X205000Y775000D02*
Y785000D01*
Y774500D02*
Y775000D01*
X190000Y759000D02*
X205000D01*
X187000Y762000D02*
X190000Y759000D01*
X187000Y762000D02*
Y767000D01*
X183510Y642247D02*
X201247D01*
X208000Y693250D02*
Y694000D01*
Y649000D02*
Y693250D01*
X201247Y642247D02*
X208000Y649000D01*
D99*
X205000Y775000D02*
X205500D01*
X184000D02*
X205000D01*
X205500D02*
X206610Y776110D01*
D100*
X112000Y759000D02*
X121000D01*
X100000D02*
X112000D01*
X101000Y719250D02*
X130000D01*
X101000Y712750D02*
X130000D01*
X101000Y707000D02*
X116000D01*
X183000Y738750D02*
X183000Y738750D01*
X183000Y738750D02*
Y752000D01*
X183000Y738750D02*
X186000D01*
X178000Y757000D02*
X183000Y752000D01*
X161000Y757000D02*
X178000D01*
X100750Y713250D02*
X101000Y713000D01*
X77250Y713250D02*
X100750D01*
X69000Y713000D02*
X77250D01*
X186000Y712750D02*
X205000D01*
X204000Y721000D02*
X205000Y722000D01*
X197988Y721000D02*
X204000D01*
X186000Y719250D02*
X196238D01*
X197988Y721000D01*
X112000Y759000D02*
Y774500D01*
Y758500D02*
Y759000D01*
X171250Y725750D02*
X186000D01*
Y732250D02*
X205000D01*
X144500Y775000D02*
X156000D01*
X158000Y773000D01*
Y760000D02*
Y773000D01*
Y760000D02*
X161000Y757000D01*
X121500Y775000D02*
X144500D01*
X112000Y774500D02*
X112500Y775000D01*
X112000Y749000D02*
X121000D01*
X112000D02*
Y749500D01*
Y738750D02*
Y749000D01*
Y738750D02*
X130000D01*
Y732250D02*
X144750D01*
X112000Y730000D02*
X117000D01*
X121250Y725750D01*
X130000D01*
X116000Y707000D02*
X116750Y706250D01*
X130000D01*
X186000Y693250D02*
X208000D01*
X202000Y695000D02*
X208000D01*
X197250Y699750D02*
X202000Y695000D01*
Y705000D02*
X209000D01*
X200750Y706250D02*
X202000Y705000D01*
X186000Y699750D02*
X197250D01*
X186000Y706250D02*
X200750D01*
D101*
X54000Y620000D02*
X72000D01*
X77250Y713000D02*
X101000D01*
X210000Y744000D02*
X231000D01*
X205000Y749000D02*
X210000Y744000D01*
X236000Y652000D02*
Y739000D01*
X231000Y744000D02*
X236000Y739000D01*
Y652000D02*
X243890Y644110D01*
X205000Y749000D02*
Y759000D01*
X77000Y730000D02*
X77250Y729750D01*
Y713250D02*
Y729750D01*
X64000Y718000D02*
Y730000D01*
Y718000D02*
X69000Y713000D01*
X18000Y598000D02*
Y612241D01*
Y583000D02*
Y598000D01*
Y513510D02*
Y583000D01*
Y659300D02*
Y682300D01*
X81000Y629000D02*
X94242D01*
X101000Y628000D02*
X104000Y631000D01*
X127000D02*
X134000Y638000D01*
X104000Y631000D02*
X127000D01*
X54000Y536298D02*
Y620000D01*
X72000D02*
X81000Y629000D01*
X18000Y513510D02*
X52000Y479510D01*
X243890Y644110D02*
X272223D01*
X52000Y463000D02*
Y479510D01*
X59858Y530440D02*
X73100D01*
X54000Y536298D02*
X59858Y530440D01*
X183220Y74340D02*
X185618Y71942D01*
X312380Y365480D02*
Y506600D01*
X312840Y506140D02*
X336520D01*
X185618Y71942D02*
X199982D01*
X206742Y78620D02*
X212600Y84478D01*
X312380Y506600D02*
X312840Y506140D01*
X199982Y71942D02*
X206660Y78620D01*
X212600Y84478D02*
Y265700D01*
X206660Y78620D02*
X206742D01*
X212600Y265700D02*
X312380Y365480D01*
X311030Y641620D02*
X312380Y640270D01*
Y506600D02*
Y640270D01*
X801762Y396560D02*
X807230D01*
X876370Y191810D02*
Y327420D01*
X807230Y396560D02*
X876370Y327420D01*
X801762Y396560D02*
X807620Y402418D01*
X341960Y673310D02*
X352632D01*
X358490Y667452D01*
Y644988D02*
Y667452D01*
X338420Y639130D02*
X352632D01*
X358490Y644988D01*
X329780Y630490D02*
X338420Y639130D01*
X329780Y564440D02*
Y630490D01*
Y564440D02*
X336520Y557700D01*
Y556940D02*
Y557700D01*
X388620Y396560D02*
X801762D01*
X807620Y402418D02*
Y483310D01*
D102*
X242940Y429940D02*
X265000Y452000D01*
Y620000D01*
X183220Y429940D02*
X242940D01*
X879870Y149310D02*
Y168289D01*
X11742Y451000D02*
X16000D01*
X8730Y447988D02*
X11742Y451000D01*
X8730Y392885D02*
Y447988D01*
X75000Y327000D02*
X88000Y314000D01*
X75000Y377000D02*
X87000Y389000D01*
X75000Y327000D02*
Y377000D01*
X88000Y314000D02*
X168880D01*
X63880Y315120D02*
Y376880D01*
X76470Y302530D02*
X183210D01*
X63880Y315120D02*
X76470Y302530D01*
X30000Y169929D02*
Y387842D01*
X46776Y404618D02*
Y410776D01*
X49000Y413000D01*
X30000Y387842D02*
X46776Y404618D01*
X77300Y464940D02*
X125240Y417000D01*
X205281D02*
X207002Y415279D01*
X125240Y417000D02*
X205281D01*
X263585Y358250D02*
Y358521D01*
X263085Y359021D02*
X263585Y358521D01*
X263085Y359021D02*
Y359196D01*
X207002Y415280D02*
X263085Y359196D01*
X32929Y167000D02*
X120340D01*
X30000Y169929D02*
X32929Y167000D01*
X8730Y392885D02*
X19615Y382000D01*
X168880Y314000D02*
X183220Y328340D01*
X87000Y389000D02*
Y401724D01*
X305660Y766310D02*
X306970Y765000D01*
X334000D01*
X334994Y714916D02*
X375675Y674235D01*
X334994Y714916D02*
Y764006D01*
X120340Y135660D02*
Y167000D01*
X178100Y79460D02*
X183220Y74340D01*
X176540Y79460D02*
X178100D01*
X120340Y135660D02*
X176540Y79460D01*
X120340Y167000D02*
Y239490D01*
X40000Y382000D02*
X58896D01*
X63948Y376948D01*
X86920Y400600D02*
Y411600D01*
X75723Y431363D02*
X76343D01*
X77920Y411600D02*
Y411770D01*
X76343Y431363D02*
X78000Y429706D01*
Y411850D02*
Y429706D01*
X77920Y411770D02*
X78000Y411850D01*
X77270Y432970D02*
X77300Y432940D01*
X52030Y432970D02*
X77270D01*
X52000Y433000D02*
X52030Y432970D01*
X349170Y316220D02*
X358980Y306410D01*
X284811Y320999D02*
X289590Y316220D01*
X331500D02*
X331500Y316220D01*
X289590Y316220D02*
X331500D01*
X331500Y316220D02*
X349170D01*
X720274Y790000D02*
X726160Y784114D01*
X342000Y790000D02*
X720274Y790000D01*
X726160Y780750D02*
Y784114D01*
X284620Y321483D02*
X284811D01*
Y320999D02*
Y321483D01*
X89609Y288490D02*
X153692D01*
X86300Y267820D02*
X86550Y268070D01*
Y270035D01*
X86680Y285561D02*
X89609Y288490D01*
X86550Y270035D02*
X86680Y270165D01*
Y285561D01*
X86300Y267570D02*
Y267820D01*
X155180Y241289D02*
Y287002D01*
X153692Y288490D02*
X155180Y287002D01*
Y126449D02*
Y241289D01*
Y126449D02*
X158109Y123520D01*
X358980Y306410D02*
X403120D01*
X498470Y12030D02*
X817180D01*
X880510Y75360D01*
X905250Y85930D02*
Y95770D01*
X880510Y75360D02*
X894680D01*
X905250Y85930D01*
X182000Y123520D02*
X183620Y125140D01*
X158109Y123520D02*
X182000D01*
X374400Y54910D02*
X455590D01*
X498470Y12030D01*
X846370Y90810D02*
Y100310D01*
X860370Y76810D02*
X860870D01*
X858870Y78310D02*
X860370Y76810D01*
X858870Y78310D02*
Y78310D01*
X846370Y90810D02*
X858870Y78310D01*
X726410Y780500D02*
X726660D01*
X726160Y780750D02*
X726410Y780500D01*
X876870Y171289D02*
Y171560D01*
Y171289D02*
X879870Y168289D01*
X861370Y76810D02*
X872120Y87560D01*
Y104310D01*
X880620Y132060D02*
Y148560D01*
X879870Y149310D02*
X880620Y148560D01*
D103*
X138470Y348980D02*
X138660Y349170D01*
X150480D01*
X138470Y348980D02*
X139870Y347580D01*
Y328480D02*
Y347580D01*
X121470Y336265D02*
Y344980D01*
Y336265D02*
X125645Y332090D01*
X125696D01*
X127170Y330617D01*
Y328480D02*
Y330617D01*
X110470Y336265D02*
Y344980D01*
Y336265D02*
X114470Y332265D01*
Y328480D02*
Y332265D01*
X94470Y336765D02*
Y348980D01*
Y336765D02*
X99145Y332090D01*
X100296D01*
X101770Y330617D01*
Y328480D02*
Y330617D01*
D104*
X48300Y271700D02*
D03*
D105*
X53300Y294000D02*
D03*
X53100Y191600D02*
D03*
X14000Y293500D02*
D03*
X13800Y191200D02*
D03*
D106*
X48100Y213900D02*
D03*
D107*
X40040Y759940D02*
D03*
Y39960D02*
D03*
X900000Y39980D02*
D03*
X900030Y759940D02*
D03*
D108*
X549871Y647508D02*
D03*
X581871D02*
D03*
X603871D02*
D03*
X625871D02*
D03*
X549871Y698308D02*
D03*
X581871D02*
D03*
X603871D02*
D03*
X391871Y646509D02*
D03*
X423871D02*
D03*
X445871D02*
D03*
X467871D02*
D03*
X391871Y697309D02*
D03*
X423871D02*
D03*
X445871D02*
D03*
X702871Y547509D02*
D03*
X734871D02*
D03*
X756871D02*
D03*
X778871D02*
D03*
X702871Y598309D02*
D03*
X734871D02*
D03*
X756871D02*
D03*
X546871Y548509D02*
D03*
X578871D02*
D03*
X600871D02*
D03*
X622871D02*
D03*
X546871Y599309D02*
D03*
X578871D02*
D03*
X600871D02*
D03*
X702644Y647468D02*
D03*
X734644D02*
D03*
X756644D02*
D03*
X778644D02*
D03*
X702644Y698268D02*
D03*
X734644D02*
D03*
X756644D02*
D03*
X398644Y548468D02*
D03*
X430644D02*
D03*
X452644D02*
D03*
X474644D02*
D03*
X398644Y599268D02*
D03*
X430644D02*
D03*
X452644D02*
D03*
X128100Y432940D02*
D03*
Y464940D02*
D03*
Y486940D02*
D03*
Y508940D02*
D03*
X77300Y432940D02*
D03*
Y464940D02*
D03*
Y486940D02*
D03*
D109*
X625871Y698308D02*
D03*
X467871Y697309D02*
D03*
X778871Y598309D02*
D03*
X622871Y599309D02*
D03*
X778644Y698268D02*
D03*
X474644Y599268D02*
D03*
D110*
X77300Y508940D02*
D03*
D111*
X640270Y768310D02*
D03*
X614870D02*
D03*
X640270Y742910D02*
D03*
X614870D02*
D03*
X360870Y768310D02*
D03*
X386270D02*
D03*
X411670D02*
D03*
X437070D02*
D03*
X462470D02*
D03*
X487870D02*
D03*
X513270D02*
D03*
X538670D02*
D03*
X564070D02*
D03*
X589470D02*
D03*
Y742910D02*
D03*
X564070D02*
D03*
X538670D02*
D03*
X513270D02*
D03*
X487870D02*
D03*
X462470D02*
D03*
X437070D02*
D03*
X411670D02*
D03*
X386270D02*
D03*
X403120Y281010D02*
D03*
Y306410D02*
D03*
X428520Y281010D02*
D03*
Y306410D02*
D03*
X453920Y281010D02*
D03*
D112*
X360870Y742910D02*
D03*
X453920Y306410D02*
D03*
D113*
X305660Y766310D02*
D03*
D114*
X280260D02*
D03*
X694160Y741300D02*
D03*
X18000Y707700D02*
D03*
D115*
X694160Y766700D02*
D03*
X18000Y682300D02*
D03*
D116*
X183220Y74340D02*
D03*
D117*
X183620Y99740D02*
D03*
Y125140D02*
D03*
Y150540D02*
D03*
Y175940D02*
D03*
Y201340D02*
D03*
Y226740D02*
D03*
Y252140D02*
D03*
Y277540D02*
D03*
Y302940D02*
D03*
X183220Y328340D02*
D03*
Y353740D02*
D03*
Y379140D02*
D03*
Y404540D02*
D03*
Y429940D02*
D03*
Y455340D02*
D03*
Y480740D02*
D03*
Y506140D02*
D03*
Y531540D02*
D03*
Y556940D02*
D03*
X336520Y74340D02*
D03*
X336920Y99740D02*
D03*
Y125140D02*
D03*
Y150540D02*
D03*
Y175940D02*
D03*
Y201340D02*
D03*
Y226740D02*
D03*
Y252140D02*
D03*
Y277540D02*
D03*
Y302940D02*
D03*
X336520Y328340D02*
D03*
Y353740D02*
D03*
Y379140D02*
D03*
Y404540D02*
D03*
Y429940D02*
D03*
Y455340D02*
D03*
Y480740D02*
D03*
Y506140D02*
D03*
Y531540D02*
D03*
Y556940D02*
D03*
D118*
X74000Y282000D02*
D03*
X172000Y775998D02*
D03*
X342000Y790000D02*
D03*
X265000Y620000D02*
D03*
X224000Y613000D02*
D03*
X375675Y674235D02*
D03*
X224000Y623000D02*
D03*
X182000Y603000D02*
D03*
X122000D02*
D03*
X212000D02*
D03*
X162000D02*
D03*
X112000D02*
D03*
X132000D02*
D03*
X192000D02*
D03*
X142000D02*
D03*
X224000Y603000D02*
D03*
X82000Y603000D02*
D03*
X202000D02*
D03*
X102000D02*
D03*
X152000D02*
D03*
X92000D02*
D03*
X72000D02*
D03*
X172000D02*
D03*
X224000Y653000D02*
D03*
Y643000D02*
D03*
Y633000D02*
D03*
Y683000D02*
D03*
Y673000D02*
D03*
Y663000D02*
D03*
Y693000D02*
D03*
Y703000D02*
D03*
Y713000D02*
D03*
Y723000D02*
D03*
Y733000D02*
D03*
X212000Y575000D02*
D03*
X197988Y721000D02*
D03*
X100000Y759000D02*
D03*
X148000Y696000D02*
D03*
Y706000D02*
D03*
X168000Y696000D02*
D03*
Y706000D02*
D03*
Y726000D02*
D03*
Y736000D02*
D03*
X148000D02*
D03*
Y726000D02*
D03*
Y716000D02*
D03*
X168000D02*
D03*
X158000Y696000D02*
D03*
Y706000D02*
D03*
Y736000D02*
D03*
Y726000D02*
D03*
Y716000D02*
D03*
X171000Y749000D02*
D03*
X161000D02*
D03*
X151000D02*
D03*
X141000D02*
D03*
X131000D02*
D03*
X187000Y679000D02*
D03*
X177000D02*
D03*
X167000D02*
D03*
X157000D02*
D03*
X147000D02*
D03*
X137000D02*
D03*
X127000D02*
D03*
Y669000D02*
D03*
X117000D02*
D03*
X107000D02*
D03*
X97000D02*
D03*
X87000D02*
D03*
X77000D02*
D03*
X67000D02*
D03*
X57000D02*
D03*
X272223Y644110D02*
D03*
X21000Y411000D02*
D03*
X19000Y421000D02*
D03*
X40000Y382000D02*
D03*
X19615D02*
D03*
X76961Y392058D02*
D03*
X129620Y251940D02*
D03*
X831870Y554310D02*
D03*
X401340Y149460D02*
D03*
X427580Y149980D02*
D03*
X439950Y149930D02*
D03*
X417810Y149190D02*
D03*
X460240Y89360D02*
D03*
X284620Y321945D02*
D03*
X263585Y358250D02*
D03*
X846800Y591650D02*
D03*
X820590Y728230D02*
D03*
X150480Y349170D02*
D03*
X245615Y342830D02*
D03*
X267020Y299770D02*
D03*
X446330Y167210D02*
D03*
X619930Y62070D02*
D03*
X559500Y92390D02*
D03*
X388620Y396560D02*
D03*
X346200Y591290D02*
D03*
X311030Y641620D02*
D03*
X265060Y660720D02*
D03*
X265850Y679990D02*
D03*
X73065Y203545D02*
D03*
X529158Y332598D02*
D03*
X581999Y326981D02*
D03*
X579970Y165180D02*
D03*
X580580Y207610D02*
D03*
X581687Y285297D02*
D03*
X604550Y138600D02*
D03*
X761860Y113160D02*
D03*
X725350Y113670D02*
D03*
X630750Y113280D02*
D03*
X691630Y113270D02*
D03*
X670540Y112300D02*
D03*
X561870Y301060D02*
D03*
X713730Y344780D02*
D03*
X792760Y127290D02*
D03*
X580650Y115400D02*
D03*
X580140Y245560D02*
D03*
X129100Y367270D02*
D03*
X99640Y367420D02*
D03*
X341510Y654270D02*
D03*
X378584Y682024D02*
D03*
X345460Y687310D02*
D03*
X409060Y233350D02*
D03*
X383990Y223655D02*
D03*
X407750Y176710D02*
D03*
X409100Y87650D02*
D03*
X382100Y98130D02*
D03*
X254060Y710720D02*
D03*
X837620Y709310D02*
D03*
X815160Y755000D02*
D03*
X834012Y777852D02*
D03*
X764410Y768750D02*
D03*
X816106Y745946D02*
D03*
X752660Y755000D02*
D03*
X912820Y703340D02*
D03*
X905250Y95770D02*
D03*
X906870Y147310D02*
D03*
X374400Y54910D02*
D03*
X727870Y628310D02*
D03*
X636870Y129310D02*
D03*
X561870Y261060D02*
D03*
X561620Y218310D02*
D03*
X562620Y131060D02*
D03*
X561870Y172560D02*
D03*
X694870Y340310D02*
D03*
X482870Y334290D02*
D03*
X543409Y326786D02*
D03*
X872120Y104310D02*
D03*
X876870Y171560D02*
D03*
X793870Y211310D02*
D03*
X876370Y191810D02*
D03*
X129100Y550940D02*
D03*
X859730Y646900D02*
D03*
X673620Y690310D02*
D03*
X484870Y408060D02*
D03*
X499870D02*
D03*
X807620Y483310D02*
D03*
X413870Y628310D02*
D03*
X913730Y664900D02*
D03*
Y620900D02*
D03*
X907730Y552900D02*
D03*
Y595900D02*
D03*
X582870Y628310D02*
D03*
X706870Y523310D02*
D03*
X753870Y524310D02*
D03*
X453870Y628310D02*
D03*
X532870Y293310D02*
D03*
X544870Y288310D02*
D03*
X533870Y250310D02*
D03*
X543870Y244310D02*
D03*
X532870Y206310D02*
D03*
X544870Y201310D02*
D03*
X532870Y164310D02*
D03*
X544870Y156310D02*
D03*
X532870Y121310D02*
D03*
X545870Y112310D02*
D03*
X457870Y530310D02*
D03*
X375870Y531316D02*
D03*
X487600Y171310D02*
D03*
X511870Y172310D02*
D03*
X496870Y331310D02*
D03*
X84100Y549940D02*
D03*
X463870Y114310D02*
D03*
X770870Y63310D02*
D03*
Y129310D02*
D03*
X737870D02*
D03*
X704870D02*
D03*
X671870D02*
D03*
X606870Y167310D02*
D03*
X638870Y326310D02*
D03*
X692870Y308310D02*
D03*
X791870Y326310D02*
D03*
X774870Y330310D02*
D03*
X759870D02*
D03*
X744870Y329310D02*
D03*
X719870Y320310D02*
D03*
X764870Y210310D02*
D03*
X813870Y187310D02*
D03*
X805870Y144310D02*
D03*
X806870Y111310D02*
D03*
X854870D02*
D03*
X847870Y148310D02*
D03*
X617870Y461310D02*
D03*
X766870D02*
D03*
X894730Y547900D02*
D03*
X857730Y537900D02*
D03*
X896730Y657900D02*
D03*
X818870Y691310D02*
D03*
X821870Y667310D02*
D03*
X830870Y602310D02*
D03*
X674870Y556310D02*
D03*
X669000Y593000D02*
D03*
X668870Y665310D02*
D03*
X514870Y541310D02*
D03*
Y587310D02*
D03*
X508870Y688310D02*
D03*
X509870Y663310D02*
D03*
X511870Y612310D02*
D03*
X341960Y673310D02*
D03*
X329960Y702310D02*
D03*
X320960Y728310D02*
D03*
X268960D02*
D03*
D119*
X250000Y759000D02*
D03*
Y774500D02*
D03*
X205000Y786000D02*
D03*
X54000Y620050D02*
D03*
X67000D02*
D03*
X77000Y730000D02*
D03*
X64000D02*
D03*
X18000Y583000D02*
D03*
Y598000D02*
D03*
M02*
